# Blender 4.2.1 LTS
# www.blender.org
mtllib backwall.mtl
o 立方体.026
v -4.138632 -0.023861 -7.914686
v -4.138632 3.848613 -7.914686
v -4.138632 -0.023861 -8.528681
v -4.138632 3.848613 -8.528681
v 7.604012 -0.023861 -7.914686
v 7.604012 3.848613 -7.914686
v 7.604012 -0.023861 -8.528681
v 7.604012 3.848613 -8.528681
v 4.050528 3.449754 -8.528681
v 4.050528 0.792481 -8.528681
v 4.050528 3.449754 -7.914686
v 4.050528 0.016978 -7.914686
v 4.050528 3.032271 -7.914686
v 4.050528 0.016978 -8.528681
v -2.291826 3.449754 -8.528681
v -2.291826 3.449754 -7.914686
v -2.291826 0.016978 -7.914686
v -2.291826 0.016978 -8.528681
v -3.226145 -0.120253 -7.132007
v -3.226145 3.849171 -7.132007
v -3.226145 -0.120253 -7.992453
v -3.226145 3.849171 -7.992453
v -2.285781 -0.120253 -7.132007
v -2.285781 3.849171 -7.132007
v -2.285781 -0.120253 -7.992453
v -2.285781 3.849171 -7.992453
vn -1.0000 -0.0000 -0.0000
vn -0.0000 -0.0000 -1.0000
vn 1.0000 -0.0000 -0.0000
vn -0.0000 -0.0000 1.0000
vn -0.0000 -1.0000 -0.0000
vn -0.0000 1.0000 -0.0000
vt 0.625000 0.000000
vt 0.375000 0.250000
vt 0.375000 0.000000
vt 0.387516 0.447298
vt 0.375000 0.500000
vt 0.625000 0.500000
vt 0.375000 0.750000
vt 0.387516 0.802702
vt 0.375000 1.000000
vt 0.125000 0.750000
vt 0.125000 0.500000
vt 0.875000 0.500000
vt 0.625000 0.750000
vt 0.000000 0.000000
vt 0.599250 0.447298
vt 0.625000 0.250000
vt 0.599250 0.802702
vt 0.625000 1.000000
vt 0.599250 0.289318
vt 0.387516 0.289318
vt 0.427702 0.447298
vt 0.572298 0.802702
vt 0.387516 0.960682
vt 0.875000 0.750000
vt 0.599250 0.960682
s 1
usemtl 材质.017
f 2/1/1 3/2/1 1/3/1
f 3/2/2 14/4/2 7/5/2
f 8/6/3 5/7/3 7/5/3
f 5/7/4 12/8/4 1/9/4
f 7/5/5 1/10/5 3/11/5
f 4/12/6 6/13/6 8/6/6
f 13/14/1 9/14/1 10/14/1
f 11/14/5 15/14/5 9/14/5
f 16/14/3 18/14/3 15/14/3
f 9/15/2 4/16/2 8/6/2
f 11/17/4 6/13/4 2/18/4
f 17/14/6 14/14/6 18/14/6
f 20/1/1 21/2/1 19/3/1
f 22/16/2 25/5/2 21/2/2
f 26/6/3 23/7/3 25/5/3
f 24/13/4 19/9/4 23/7/4
f 25/5/5 19/10/5 21/11/5
f 22/12/6 24/13/6 26/6/6
f 2/1/1 4/16/1 3/2/1
f 3/2/2 4/16/2 15/19/2
f 3/2/2 15/19/2 18/20/2
f 14/4/2 10/21/2 7/5/2
f 3/2/2 18/20/2 14/4/2
f 8/6/3 6/13/3 5/7/3
f 5/7/4 6/13/4 13/22/4
f 12/8/4 17/23/4 1/9/4
f 5/7/4 13/22/4 12/8/4
f 7/5/5 5/7/5 1/10/5
f 4/12/6 2/24/6 6/13/6
f 10/14/1 14/14/1 12/14/1
f 13/14/1 11/14/1 9/14/1
f 10/14/1 12/14/1 13/14/1
f 11/14/5 16/14/5 15/14/5
f 16/14/3 17/14/3 18/14/3
f 8/6/2 7/5/2 10/21/2
f 9/15/2 15/19/2 4/16/2
f 8/6/2 10/21/2 9/15/2
f 2/18/4 1/9/4 17/23/4
f 2/18/4 17/23/4 16/25/4
f 11/17/4 13/22/4 6/13/4
f 2/18/4 16/25/4 11/17/4
f 17/14/6 12/14/6 14/14/6
f 20/1/1 22/16/1 21/2/1
f 22/16/2 26/6/2 25/5/2
f 26/6/3 24/13/3 23/7/3
f 24/13/4 20/18/4 19/9/4
f 25/5/5 23/7/5 19/10/5
f 22/12/6 20/24/6 24/13/6
