# Blender 4.3.2
# www.blender.org
mtllib boxbutton.mtl
o 立方体.037
v -2.726252 0.572522 -3.767001
v -2.681144 0.572522 -3.767001
v -2.726252 0.568122 -3.766568
v -2.681144 0.568122 -3.766568
v -2.726252 0.563891 -3.765285
v -2.681144 0.563891 -3.765285
v -2.726252 0.559992 -3.763200
v -2.681144 0.559992 -3.763200
v -2.726252 0.556574 -3.760396
v -2.681144 0.556574 -3.760396
v -2.726252 0.553769 -3.756978
v -2.681144 0.553769 -3.756978
v -2.726252 0.551685 -3.753078
v -2.681144 0.551685 -3.753078
v -2.726252 0.550401 -3.748848
v -2.681144 0.550401 -3.748848
v -2.726252 0.549968 -3.744448
v -2.681144 0.549968 -3.744448
v -2.726252 0.550401 -3.740048
v -2.681144 0.550401 -3.740048
v -2.726252 0.551685 -3.735817
v -2.681144 0.551685 -3.735817
v -2.726252 0.553769 -3.731917
v -2.681144 0.553769 -3.731917
v -2.726252 0.556574 -3.728500
v -2.681144 0.556574 -3.728500
v -2.726252 0.559992 -3.725695
v -2.681144 0.559992 -3.725695
v -2.726252 0.563891 -3.723611
v -2.681144 0.563891 -3.723611
v -2.726252 0.568122 -3.722327
v -2.681144 0.568122 -3.722327
v -2.726252 0.572522 -3.721894
v -2.681144 0.572522 -3.721894
v -2.726252 0.576922 -3.722327
v -2.681144 0.576922 -3.722327
v -2.726252 0.581153 -3.723611
v -2.681144 0.581153 -3.723611
v -2.726252 0.585052 -3.725695
v -2.681144 0.585052 -3.725695
v -2.726252 0.588470 -3.728500
v -2.681144 0.588470 -3.728500
v -2.726252 0.591274 -3.731917
v -2.681144 0.591274 -3.731917
v -2.726252 0.593359 -3.735817
v -2.681144 0.593359 -3.735817
v -2.726252 0.594642 -3.740048
v -2.681144 0.594642 -3.740048
v -2.726252 0.595075 -3.744448
v -2.681144 0.595075 -3.744448
v -2.726252 0.594642 -3.748848
v -2.681144 0.594642 -3.748848
v -2.726252 0.593359 -3.753079
v -2.681144 0.593359 -3.753079
v -2.726252 0.591274 -3.756978
v -2.681144 0.591274 -3.756978
v -2.726252 0.588470 -3.760396
v -2.681144 0.588470 -3.760396
v -2.726252 0.585052 -3.763200
v -2.681144 0.585052 -3.763200
v -2.726252 0.581153 -3.765285
v -2.681144 0.581153 -3.765285
v -2.726252 0.576922 -3.766568
v -2.681144 0.576922 -3.766568
v -2.726252 0.572522 -3.918616
v -2.681144 0.572522 -3.918616
v -2.726252 0.568122 -3.918182
v -2.681144 0.568122 -3.918182
v -2.726252 0.563891 -3.916899
v -2.681144 0.563891 -3.916899
v -2.726252 0.559992 -3.914814
v -2.681144 0.559992 -3.914814
v -2.726252 0.556574 -3.912010
v -2.681144 0.556574 -3.912010
v -2.726252 0.553769 -3.908592
v -2.681144 0.553769 -3.908592
v -2.726252 0.551685 -3.904693
v -2.681144 0.551685 -3.904693
v -2.726252 0.550401 -3.900462
v -2.681144 0.550401 -3.900462
v -2.726252 0.549968 -3.896062
v -2.681144 0.549968 -3.896062
v -2.726252 0.550401 -3.891662
v -2.681144 0.550401 -3.891662
v -2.726252 0.551685 -3.887431
v -2.681144 0.551685 -3.887431
v -2.726252 0.553769 -3.883532
v -2.681144 0.553769 -3.883532
v -2.726252 0.556574 -3.880114
v -2.681144 0.556574 -3.880114
v -2.726252 0.559992 -3.877309
v -2.681144 0.559992 -3.877309
v -2.726252 0.563891 -3.875225
v -2.681144 0.563891 -3.875225
v -2.726252 0.568122 -3.873941
v -2.681144 0.568122 -3.873941
v -2.726252 0.572522 -3.873508
v -2.681144 0.572522 -3.873508
v -2.726252 0.576922 -3.873941
v -2.681144 0.576922 -3.873941
v -2.726252 0.581153 -3.875225
v -2.681144 0.581153 -3.875225
v -2.726252 0.585052 -3.877309
v -2.681144 0.585052 -3.877309
v -2.726252 0.588470 -3.880114
v -2.681144 0.588470 -3.880114
v -2.726252 0.591274 -3.883532
v -2.681144 0.591274 -3.883532
v -2.726252 0.593359 -3.887431
v -2.681144 0.593359 -3.887431
v -2.726252 0.594642 -3.891662
v -2.681144 0.594642 -3.891662
v -2.726252 0.595075 -3.896062
v -2.681144 0.595075 -3.896062
v -2.726252 0.594642 -3.900462
v -2.681144 0.594642 -3.900462
v -2.726252 0.593359 -3.904693
v -2.681144 0.593359 -3.904693
v -2.726252 0.591274 -3.908592
v -2.681144 0.591274 -3.908592
v -2.726252 0.588470 -3.912010
v -2.681144 0.588470 -3.912010
v -2.726252 0.585052 -3.914814
v -2.681144 0.585052 -3.914814
v -2.726252 0.581153 -3.916899
v -2.681144 0.581153 -3.916899
v -2.726252 0.576922 -3.918182
v -2.681144 0.576922 -3.918182
v -2.726252 0.572522 -4.088474
v -2.681144 0.572522 -4.088474
v -2.726252 0.568122 -4.088041
v -2.681144 0.568122 -4.088041
v -2.726252 0.563891 -4.086757
v -2.681144 0.563891 -4.086757
v -2.726252 0.559992 -4.084673
v -2.681144 0.559992 -4.084673
v -2.726252 0.556574 -4.081868
v -2.681144 0.556574 -4.081868
v -2.726252 0.553769 -4.078451
v -2.681144 0.553769 -4.078451
v -2.726252 0.551685 -4.074551
v -2.681144 0.551685 -4.074551
v -2.726252 0.550401 -4.070320
v -2.681144 0.550401 -4.070320
v -2.726252 0.549968 -4.065920
v -2.681144 0.549968 -4.065920
v -2.726252 0.550401 -4.061520
v -2.681144 0.550401 -4.061520
v -2.726252 0.551685 -4.057289
v -2.681144 0.551685 -4.057289
v -2.726252 0.553769 -4.053390
v -2.681144 0.553769 -4.053390
v -2.726252 0.556574 -4.049973
v -2.681144 0.556574 -4.049973
v -2.726252 0.559992 -4.047167
v -2.681144 0.559992 -4.047167
v -2.726252 0.563891 -4.045084
v -2.681144 0.563891 -4.045084
v -2.726252 0.568122 -4.043800
v -2.681144 0.568122 -4.043800
v -2.726252 0.572522 -4.043366
v -2.681144 0.572522 -4.043366
v -2.726252 0.576922 -4.043800
v -2.681144 0.576922 -4.043800
v -2.726252 0.581153 -4.045084
v -2.681144 0.581153 -4.045084
v -2.726252 0.585052 -4.047167
v -2.681144 0.585052 -4.047167
v -2.726252 0.588470 -4.049973
v -2.681144 0.588470 -4.049973
v -2.726252 0.591274 -4.053390
v -2.681144 0.591274 -4.053390
v -2.726252 0.593359 -4.057289
v -2.681144 0.593359 -4.057289
v -2.726252 0.594642 -4.061520
v -2.681144 0.594642 -4.061520
v -2.726252 0.595075 -4.065920
v -2.681144 0.595075 -4.065920
v -2.726252 0.594642 -4.070320
v -2.681144 0.594642 -4.070320
v -2.726252 0.593359 -4.074551
v -2.681144 0.593359 -4.074551
v -2.726252 0.591274 -4.078451
v -2.681144 0.591274 -4.078451
v -2.726252 0.588470 -4.081868
v -2.681144 0.588470 -4.081868
v -2.726252 0.585052 -4.084673
v -2.681144 0.585052 -4.084673
v -2.726252 0.581153 -4.086757
v -2.681144 0.581153 -4.086757
v -2.726252 0.576922 -4.088041
v -2.681144 0.576922 -4.088041
vn -0.7837 -0.0000 -0.6211
vn 0.7837 -0.0000 -0.6211
vn -0.7777 -0.1238 -0.6163
vn 0.7777 -0.1238 -0.6163
vn -0.7585 -0.2518 -0.6011
vn 0.7585 -0.2518 -0.6011
vn -0.7224 -0.3878 -0.5725
vn 0.7224 -0.3878 -0.5725
vn -0.6623 -0.5348 -0.5248
vn 0.6623 -0.5347 -0.5248
vn -0.5663 -0.6916 -0.4484
vn 0.5663 -0.6916 -0.4484
vn -0.4183 -0.8463 -0.3298
vn 0.4183 -0.8463 -0.3298
vn -0.2164 -0.9633 -0.1586
vn 0.2165 -0.9633 -0.1586
vn -0.1109 -0.9938 -0.0000
vn 0.1109 -0.9938 -0.0000
vn -0.2165 -0.9633 0.1586
vn 0.2165 -0.9633 0.1586
vn -0.4183 -0.8463 0.3298
vn 0.4183 -0.8463 0.3298
vn -0.5662 -0.6916 0.4484
vn 0.5663 -0.6916 0.4484
vn -0.6623 -0.5347 0.5248
vn 0.6623 -0.5348 0.5248
vn -0.7224 -0.3878 0.5725
vn 0.7224 -0.3878 0.5725
vn -0.7585 -0.2518 0.6011
vn 0.7585 -0.2518 0.6011
vn -0.7777 -0.1238 0.6163
vn 0.7778 -0.1238 0.6163
vn -0.7837 -0.0000 0.6211
vn 0.7837 -0.0000 0.6211
vn -0.7777 0.1238 0.6163
vn 0.7777 0.1238 0.6164
vn -0.7585 0.2518 0.6011
vn 0.7585 0.2518 0.6011
vn -0.7224 0.3878 0.5725
vn 0.7224 0.3878 0.5725
vn -0.6623 0.5347 0.5248
vn 0.6623 0.5348 0.5248
vn -0.5663 0.6916 0.4484
vn 0.5663 0.6916 0.4484
vn -0.4183 0.8463 0.3298
vn 0.4183 0.8463 0.3298
vn -0.2164 0.9633 0.1586
vn 0.2165 0.9633 0.1586
vn -0.1109 0.9938 -0.0000
vn 0.1109 0.9938 -0.0000
vn -0.2165 0.9633 -0.1586
vn 0.2165 0.9633 -0.1586
vn -0.4183 0.8463 -0.3298
vn 0.4183 0.8463 -0.3298
vn -0.5663 0.6916 -0.4484
vn 0.5663 0.6916 -0.4484
vn -0.6623 0.5348 -0.5248
vn 0.6623 0.5348 -0.5248
vn -0.7224 0.3878 -0.5725
vn 0.7224 0.3878 -0.5725
vn -0.7585 0.2518 -0.6011
vn 0.7585 0.2518 -0.6011
vn -0.7777 0.1238 -0.6163
vn 0.7777 0.1238 -0.6164
vt 1.000000 1.000000
vt 0.968750 0.500000
vt 1.000000 0.500000
vt 0.968750 1.000000
vt 0.937500 0.500000
vt 0.937500 1.000000
vt 0.906250 0.500000
vt 0.906250 1.000000
vt 0.875000 0.500000
vt 0.875000 1.000000
vt 0.843750 0.500000
vt 0.843750 1.000000
vt 0.812500 0.500000
vt 0.781250 1.000000
vt 0.781250 0.500000
vt 0.750000 0.500000
vt 0.718750 1.000000
vt 0.718750 0.500000
vt 0.687500 0.500000
vt 0.656250 1.000000
vt 0.656250 0.500000
vt 0.625000 0.500000
vt 0.593750 1.000000
vt 0.593750 0.500000
vt 0.562500 1.000000
vt 0.562500 0.500000
vt 0.531250 1.000000
vt 0.531250 0.500000
vt 0.500000 1.000000
vt 0.500000 0.500000
vt 0.468750 1.000000
vt 0.468750 0.500000
vt 0.437500 1.000000
vt 0.437500 0.500000
vt 0.406250 1.000000
vt 0.406250 0.500000
vt 0.375000 1.000000
vt 0.375000 0.500000
vt 0.343750 1.000000
vt 0.343750 0.500000
vt 0.312500 1.000000
vt 0.312500 0.500000
vt 0.281250 1.000000
vt 0.281250 0.500000
vt 0.250000 1.000000
vt 0.250000 0.500000
vt 0.218750 1.000000
vt 0.218750 0.500000
vt 0.187500 0.500000
vt 0.187500 1.000000
vt 0.156250 0.500000
vt 0.156250 1.000000
vt 0.125000 0.500000
vt 0.125000 1.000000
vt 0.093750 0.500000
vt 0.093750 1.000000
vt 0.062500 0.500000
vt 0.158156 0.028269
vt 0.471731 0.158156
vt 0.341844 0.471731
vt 0.062500 1.000000
vt 0.031250 0.500000
vt 0.031250 1.000000
vt 0.000000 0.500000
vt 0.796822 0.014612
vt 0.514612 0.203178
vt 0.703178 0.485388
vt 0.812500 1.000000
vt 0.750000 1.000000
vt 0.687500 1.000000
vt 0.625000 1.000000
vt 0.296822 0.485388
vt 0.250000 0.490000
vt 0.203178 0.485388
vt 0.158156 0.471731
vt 0.116663 0.449553
vt 0.080294 0.419706
vt 0.050447 0.383337
vt 0.028269 0.341844
vt 0.014612 0.296822
vt 0.010000 0.250000
vt 0.014612 0.203178
vt 0.028269 0.158156
vt 0.050447 0.116663
vt 0.080294 0.080294
vt 0.116663 0.050447
vt 0.203178 0.014612
vt 0.250000 0.010000
vt 0.296822 0.014612
vt 0.341844 0.028269
vt 0.383337 0.050447
vt 0.419706 0.080294
vt 0.449553 0.116663
vt 0.485388 0.203178
vt 0.490000 0.250000
vt 0.485388 0.296822
vt 0.471731 0.341844
vt 0.449553 0.383337
vt 0.419706 0.419706
vt 0.383337 0.449553
vt 0.000000 1.000000
vt 0.750000 0.490000
vt 0.796822 0.485388
vt 0.841844 0.471731
vt 0.883337 0.449553
vt 0.919706 0.419706
vt 0.949553 0.383337
vt 0.971731 0.341844
vt 0.985388 0.296822
vt 0.990000 0.250000
vt 0.985388 0.203178
vt 0.971731 0.158156
vt 0.949553 0.116663
vt 0.919706 0.080294
vt 0.883337 0.050447
vt 0.841844 0.028269
vt 0.750000 0.010000
vt 0.703178 0.014612
vt 0.658156 0.028269
vt 0.616663 0.050447
vt 0.580294 0.080294
vt 0.550447 0.116663
vt 0.528269 0.158156
vt 0.510000 0.250000
vt 0.514612 0.296822
vt 0.528269 0.341844
vt 0.550447 0.383337
vt 0.580294 0.419706
vt 0.616663 0.449553
vt 0.658156 0.471731
s 1
usemtl 材质.008
f 2/1/2 3/2/3 1/3/1
f 4/4/4 5/5/5 3/2/3
f 6/6/6 7/7/7 5/5/5
f 8/8/8 9/9/9 7/7/7
f 10/10/10 11/11/11 9/9/9
f 12/12/12 13/13/13 11/11/11
f 13/13/13 16/14/16 15/15/15
f 16/14/16 17/16/17 15/15/15
f 17/16/17 20/17/20 19/18/19
f 20/17/20 21/19/21 19/18/19
f 21/19/21 24/20/24 23/21/23
f 24/20/24 25/22/25 23/21/23
f 25/22/25 28/23/28 27/24/27
f 27/24/27 30/25/30 29/26/29
f 29/26/29 32/27/32 31/28/31
f 31/28/31 34/29/34 33/30/33
f 33/30/33 36/31/36 35/32/35
f 35/32/35 38/33/38 37/34/37
f 37/34/37 40/35/40 39/36/39
f 39/36/39 42/37/42 41/38/41
f 41/38/41 44/39/44 43/40/43
f 43/40/43 46/41/46 45/42/45
f 45/42/45 48/43/48 47/44/47
f 47/44/47 50/45/50 49/46/49
f 49/46/49 52/47/52 51/48/51
f 52/47/52 53/49/53 51/48/51
f 54/50/54 55/51/55 53/49/53
f 56/52/56 57/53/57 55/51/55
f 58/54/58 59/55/59 57/53/57
f 60/56/60 61/57/61 59/55/59
f 38/58/38 22/59/22 6/60/6
f 62/61/62 63/62/63 61/57/61
f 64/63/64 1/64/1 63/62/63
f 31/65/31 47/66/47 63/67/63
f 66/1/2 67/2/3 65/3/1
f 68/4/4 69/5/5 67/2/3
f 70/6/6 71/7/7 69/5/5
f 72/8/8 73/9/9 71/7/7
f 74/10/10 75/11/11 73/9/9
f 76/12/12 77/13/13 75/11/11
f 78/68/14 79/15/15 77/13/13
f 80/14/16 81/16/17 79/15/15
f 81/16/17 84/17/20 83/18/19
f 84/17/20 85/19/21 83/18/19
f 85/19/21 88/20/24 87/21/23
f 88/20/24 89/22/25 87/21/23
f 89/22/25 92/23/28 91/24/27
f 91/24/27 94/25/30 93/26/29
f 93/26/29 96/27/32 95/28/31
f 95/28/31 98/29/34 97/30/33
f 97/30/33 100/31/36 99/32/35
f 99/32/35 102/33/38 101/34/37
f 102/33/38 103/36/39 101/34/37
f 103/36/39 106/37/42 105/38/41
f 105/38/41 108/39/44 107/40/43
f 107/40/43 110/41/46 109/42/45
f 109/42/45 112/43/48 111/44/47
f 111/44/47 114/45/50 113/46/49
f 114/45/50 115/48/51 113/46/49
f 116/47/52 117/49/53 115/48/51
f 118/50/54 119/51/55 117/49/53
f 120/52/56 121/53/57 119/51/55
f 122/54/58 123/55/59 121/53/57
f 124/56/60 125/57/61 123/55/59
f 102/58/38 86/59/22 70/60/6
f 126/61/62 127/62/63 125/57/61
f 128/63/64 65/64/1 127/62/63
f 95/65/31 111/66/47 127/67/63
f 130/1/2 131/2/3 129/3/1
f 132/4/4 133/5/5 131/2/3
f 134/6/6 135/7/7 133/5/5
f 136/8/8 137/9/9 135/7/7
f 138/10/10 139/11/11 137/9/9
f 140/12/12 141/13/13 139/11/11
f 142/68/14 143/15/15 141/13/13
f 144/14/16 145/16/17 143/15/15
f 146/69/18 147/18/19 145/16/17
f 148/17/20 149/19/21 147/18/19
f 149/19/21 152/20/24 151/21/23
f 152/20/24 153/22/25 151/21/23
f 153/22/25 156/23/28 155/24/27
f 155/24/27 158/25/30 157/26/29
f 157/26/29 160/27/32 159/28/31
f 159/28/31 162/29/34 161/30/33
f 161/30/33 164/31/36 163/32/35
f 163/32/35 166/33/38 165/34/37
f 166/33/38 167/36/39 165/34/37
f 167/36/39 170/37/42 169/38/41
f 169/38/41 172/39/44 171/40/43
f 171/40/43 174/41/46 173/42/45
f 173/42/45 176/43/48 175/44/47
f 175/44/47 178/45/50 177/46/49
f 178/45/50 179/48/51 177/46/49
f 180/47/52 181/49/53 179/48/51
f 182/50/54 183/51/55 181/49/53
f 184/52/56 185/53/57 183/51/55
f 186/54/58 187/55/59 185/53/57
f 188/56/60 189/57/61 187/55/59
f 166/58/38 150/59/22 134/60/6
f 190/61/62 191/62/63 189/57/61
f 192/63/64 129/64/1 191/62/63
f 159/65/31 175/66/47 191/67/63
f 2/1/2 4/4/4 3/2/3
f 4/4/4 6/6/6 5/5/5
f 6/6/6 8/8/8 7/7/7
f 8/8/8 10/10/10 9/9/9
f 10/10/10 12/12/12 11/11/11
f 12/12/12 14/68/14 13/13/13
f 13/13/13 14/68/14 16/14/16
f 16/14/16 18/69/18 17/16/17
f 17/16/17 18/69/18 20/17/20
f 20/17/20 22/70/22 21/19/21
f 21/19/21 22/70/22 24/20/24
f 24/20/24 26/71/26 25/22/25
f 25/22/25 26/71/26 28/23/28
f 27/24/27 28/23/28 30/25/30
f 29/26/29 30/25/30 32/27/32
f 31/28/31 32/27/32 34/29/34
f 33/30/33 34/29/34 36/31/36
f 35/32/35 36/31/36 38/33/38
f 37/34/37 38/33/38 40/35/40
f 39/36/39 40/35/40 42/37/42
f 41/38/41 42/37/42 44/39/44
f 43/40/43 44/39/44 46/41/46
f 45/42/45 46/41/46 48/43/48
f 47/44/47 48/43/48 50/45/50
f 49/46/49 50/45/50 52/47/52
f 52/47/52 54/50/54 53/49/53
f 54/50/54 56/52/56 55/51/55
f 56/52/56 58/54/58 57/53/57
f 58/54/58 60/56/60 59/55/59
f 60/56/60 62/61/62 61/57/61
f 6/60/6 4/72/4 2/73/2
f 2/73/2 64/74/64 62/75/62
f 62/75/62 60/76/60 58/77/58
f 58/77/58 56/78/56 54/79/54
f 54/79/54 52/80/52 50/81/50
f 50/81/50 48/82/48 46/83/46
f 46/83/46 44/84/44 42/85/42
f 42/85/42 40/86/40 38/58/38
f 38/58/38 36/87/36 34/88/34
f 34/88/34 32/89/32 30/90/30
f 30/90/30 28/91/28 26/92/26
f 26/92/26 24/93/24 22/59/22
f 22/59/22 20/94/20 18/95/18
f 18/95/18 16/96/16 14/97/14
f 14/97/14 12/98/12 10/99/10
f 10/99/10 8/100/8 6/60/6
f 6/60/6 2/73/2 62/75/62
f 62/75/62 58/77/58 54/79/54
f 54/79/54 50/81/50 46/83/46
f 46/83/46 42/85/42 38/58/38
f 38/58/38 34/88/34 30/90/30
f 30/90/30 26/92/26 22/59/22
f 22/59/22 18/95/18 14/97/14
f 14/97/14 10/99/10 6/60/6
f 6/60/6 62/75/62 54/79/54
f 54/79/54 46/83/46 38/58/38
f 38/58/38 30/90/30 22/59/22
f 22/59/22 14/97/14 6/60/6
f 6/60/6 54/79/54 38/58/38
f 62/61/62 64/63/64 63/62/63
f 64/63/64 2/101/2 1/64/1
f 63/67/63 1/102/1 3/103/3
f 3/103/3 5/104/5 7/105/7
f 7/105/7 9/106/9 11/107/11
f 11/107/11 13/108/13 15/109/15
f 15/109/15 17/110/17 19/111/19
f 19/111/19 21/112/21 23/113/23
f 23/113/23 25/114/25 27/115/27
f 27/115/27 29/116/29 31/65/31
f 31/65/31 33/117/33 35/118/35
f 35/118/35 37/119/37 39/120/39
f 39/120/39 41/121/41 43/122/43
f 43/122/43 45/123/45 47/66/47
f 47/66/47 49/124/49 51/125/51
f 51/125/51 53/126/53 55/127/55
f 55/127/55 57/128/57 59/129/59
f 59/129/59 61/130/61 63/67/63
f 63/67/63 3/103/3 7/105/7
f 7/105/7 11/107/11 15/109/15
f 15/109/15 19/111/19 23/113/23
f 23/113/23 27/115/27 31/65/31
f 31/65/31 35/118/35 39/120/39
f 39/120/39 43/122/43 47/66/47
f 47/66/47 51/125/51 55/127/55
f 55/127/55 59/129/59 63/67/63
f 63/67/63 7/105/7 15/109/15
f 15/109/15 23/113/23 31/65/31
f 31/65/31 39/120/39 47/66/47
f 47/66/47 55/127/55 63/67/63
f 63/67/63 15/109/15 31/65/31
f 66/1/2 68/4/4 67/2/3
f 68/4/4 70/6/6 69/5/5
f 70/6/6 72/8/8 71/7/7
f 72/8/8 74/10/10 73/9/9
f 74/10/10 76/12/12 75/11/11
f 76/12/12 78/68/14 77/13/13
f 78/68/14 80/14/16 79/15/15
f 80/14/16 82/69/18 81/16/17
f 81/16/17 82/69/18 84/17/20
f 84/17/20 86/70/22 85/19/21
f 85/19/21 86/70/22 88/20/24
f 88/20/24 90/71/26 89/22/25
f 89/22/25 90/71/26 92/23/28
f 91/24/27 92/23/28 94/25/30
f 93/26/29 94/25/30 96/27/32
f 95/28/31 96/27/32 98/29/34
f 97/30/33 98/29/34 100/31/36
f 99/32/35 100/31/36 102/33/38
f 102/33/38 104/35/40 103/36/39
f 103/36/39 104/35/40 106/37/42
f 105/38/41 106/37/42 108/39/44
f 107/40/43 108/39/44 110/41/46
f 109/42/45 110/41/46 112/43/48
f 111/44/47 112/43/48 114/45/50
f 114/45/50 116/47/52 115/48/51
f 116/47/52 118/50/54 117/49/53
f 118/50/54 120/52/56 119/51/55
f 120/52/56 122/54/58 121/53/57
f 122/54/58 124/56/60 123/55/59
f 124/56/60 126/61/62 125/57/61
f 70/60/6 68/72/4 66/73/2
f 66/73/2 128/74/64 126/75/62
f 126/75/62 124/76/60 122/77/58
f 122/77/58 120/78/56 118/79/54
f 118/79/54 116/80/52 114/81/50
f 114/81/50 112/82/48 110/83/46
f 110/83/46 108/84/44 106/85/42
f 106/85/42 104/86/40 102/58/38
f 102/58/38 100/87/36 98/88/34
f 98/88/34 96/89/32 94/90/30
f 94/90/30 92/91/28 90/92/26
f 90/92/26 88/93/24 86/59/22
f 86/59/22 84/94/20 82/95/18
f 82/95/18 80/96/16 78/97/14
f 78/97/14 76/98/12 74/99/10
f 74/99/10 72/100/8 70/60/6
f 70/60/6 66/73/2 126/75/62
f 126/75/62 122/77/58 118/79/54
f 118/79/54 114/81/50 110/83/46
f 110/83/46 106/85/42 102/58/38
f 102/58/38 98/88/34 94/90/30
f 94/90/30 90/92/26 86/59/22
f 86/59/22 82/95/18 78/97/14
f 78/97/14 74/99/10 70/60/6
f 70/60/6 126/75/62 118/79/54
f 118/79/54 110/83/46 102/58/38
f 102/58/38 94/90/30 86/59/22
f 86/59/22 78/97/14 70/60/6
f 70/60/6 118/79/54 102/58/38
f 126/61/62 128/63/64 127/62/63
f 128/63/64 66/101/2 65/64/1
f 127/67/63 65/102/1 67/103/3
f 67/103/3 69/104/5 71/105/7
f 71/105/7 73/106/9 75/107/11
f 75/107/11 77/108/13 79/109/15
f 79/109/15 81/110/17 83/111/19
f 83/111/19 85/112/21 87/113/23
f 87/113/23 89/114/25 91/115/27
f 91/115/27 93/116/29 95/65/31
f 95/65/31 97/117/33 99/118/35
f 99/118/35 101/119/37 103/120/39
f 103/120/39 105/121/41 107/122/43
f 107/122/43 109/123/45 111/66/47
f 111/66/47 113/124/49 115/125/51
f 115/125/51 117/126/53 119/127/55
f 119/127/55 121/128/57 123/129/59
f 123/129/59 125/130/61 127/67/63
f 127/67/63 67/103/3 71/105/7
f 71/105/7 75/107/11 79/109/15
f 79/109/15 83/111/19 87/113/23
f 87/113/23 91/115/27 95/65/31
f 95/65/31 99/118/35 103/120/39
f 103/120/39 107/122/43 111/66/47
f 111/66/47 115/125/51 119/127/55
f 119/127/55 123/129/59 127/67/63
f 127/67/63 71/105/7 79/109/15
f 79/109/15 87/113/23 95/65/31
f 95/65/31 103/120/39 111/66/47
f 111/66/47 119/127/55 127/67/63
f 127/67/63 79/109/15 95/65/31
f 130/1/2 132/4/4 131/2/3
f 132/4/4 134/6/6 133/5/5
f 134/6/6 136/8/8 135/7/7
f 136/8/8 138/10/10 137/9/9
f 138/10/10 140/12/12 139/11/11
f 140/12/12 142/68/14 141/13/13
f 142/68/14 144/14/16 143/15/15
f 144/14/16 146/69/18 145/16/17
f 146/69/18 148/17/20 147/18/19
f 148/17/20 150/70/22 149/19/21
f 149/19/21 150/70/22 152/20/24
f 152/20/24 154/71/26 153/22/25
f 153/22/25 154/71/26 156/23/28
f 155/24/27 156/23/28 158/25/30
f 157/26/29 158/25/30 160/27/32
f 159/28/31 160/27/32 162/29/34
f 161/30/33 162/29/34 164/31/36
f 163/32/35 164/31/36 166/33/38
f 166/33/38 168/35/40 167/36/39
f 167/36/39 168/35/40 170/37/42
f 169/38/41 170/37/42 172/39/44
f 171/40/43 172/39/44 174/41/46
f 173/42/45 174/41/46 176/43/48
f 175/44/47 176/43/48 178/45/50
f 178/45/50 180/47/52 179/48/51
f 180/47/52 182/50/54 181/49/53
f 182/50/54 184/52/56 183/51/55
f 184/52/56 186/54/58 185/53/57
f 186/54/58 188/56/60 187/55/59
f 188/56/60 190/61/62 189/57/61
f 134/60/6 132/72/4 130/73/2
f 130/73/2 192/74/64 190/75/62
f 190/75/62 188/76/60 186/77/58
f 186/77/58 184/78/56 182/79/54
f 182/79/54 180/80/52 178/81/50
f 178/81/50 176/82/48 174/83/46
f 174/83/46 172/84/44 170/85/42
f 170/85/42 168/86/40 166/58/38
f 166/58/38 164/87/36 162/88/34
f 162/88/34 160/89/32 158/90/30
f 158/90/30 156/91/28 154/92/26
f 154/92/26 152/93/24 150/59/22
f 150/59/22 148/94/20 146/95/18
f 146/95/18 144/96/16 142/97/14
f 142/97/14 140/98/12 138/99/10
f 138/99/10 136/100/8 134/60/6
f 134/60/6 130/73/2 190/75/62
f 190/75/62 186/77/58 182/79/54
f 182/79/54 178/81/50 174/83/46
f 174/83/46 170/85/42 166/58/38
f 166/58/38 162/88/34 158/90/30
f 158/90/30 154/92/26 150/59/22
f 150/59/22 146/95/18 142/97/14
f 142/97/14 138/99/10 134/60/6
f 134/60/6 190/75/62 182/79/54
f 182/79/54 174/83/46 166/58/38
f 166/58/38 158/90/30 150/59/22
f 150/59/22 142/97/14 134/60/6
f 134/60/6 182/79/54 166/58/38
f 190/61/62 192/63/64 191/62/63
f 192/63/64 130/101/2 129/64/1
f 191/67/63 129/102/1 131/103/3
f 131/103/3 133/104/5 135/105/7
f 135/105/7 137/106/9 139/107/11
f 139/107/11 141/108/13 143/109/15
f 143/109/15 145/110/17 147/111/19
f 147/111/19 149/112/21 151/113/23
f 151/113/23 153/114/25 155/115/27
f 155/115/27 157/116/29 159/65/31
f 159/65/31 161/117/33 163/118/35
f 163/118/35 165/119/37 167/120/39
f 167/120/39 169/121/41 171/122/43
f 171/122/43 173/123/45 175/66/47
f 175/66/47 177/124/49 179/125/51
f 179/125/51 181/126/53 183/127/55
f 183/127/55 185/128/57 187/129/59
f 187/129/59 189/130/61 191/67/63
f 191/67/63 131/103/3 135/105/7
f 135/105/7 139/107/11 143/109/15
f 143/109/15 147/111/19 151/113/23
f 151/113/23 155/115/27 159/65/31
f 159/65/31 163/118/35 167/120/39
f 167/120/39 171/122/43 175/66/47
f 175/66/47 179/125/51 183/127/55
f 183/127/55 187/129/59 191/67/63
f 191/67/63 135/105/7 143/109/15
f 143/109/15 151/113/23 159/65/31
f 159/65/31 167/120/39 175/66/47
f 175/66/47 183/127/55 191/67/63
f 191/67/63 143/109/15 159/65/31
