# Blender 4.2.1 LTS
# www.blender.org
mtllib ceiling.mtl
o 立方体.027
v 4.715870 3.692247 2.574536
v 7.528552 5.692247 3.681191
v 4.715870 3.692247 -7.135049
v 7.528552 5.692247 -8.516092
v -2.286116 3.692247 2.574536
v -4.113071 5.692247 3.681191
v -2.286116 3.692247 -7.135049
v -4.113071 5.692247 -8.516092
v 7.528552 3.692247 -8.516092
v 7.528552 3.692247 3.681191
v -4.113071 3.692247 -8.516092
v -4.113071 3.692247 3.681191
v 4.567310 4.047643 -6.948172
v 4.567310 4.047643 2.387657
v -2.137556 4.047643 -6.948172
v -2.137556 4.064259 2.363005
v 4.715870 3.963794 -7.135049
v 4.715870 3.963794 2.574536
v -2.286116 3.963794 -7.135049
v -2.286116 3.963794 2.574536
v 4.567310 4.537045 -6.948172
v 4.567310 4.537045 2.387657
v -2.137556 4.537045 -6.948172
v -2.137556 4.520430 2.363005
v -2.400044 3.704590 0.526796
v -2.400044 4.623186 0.526796
v -2.400044 3.704590 -0.080601
v -2.400044 4.623186 -0.080601
v 4.829798 3.704590 0.526796
v 4.829798 4.623186 0.526796
v 4.829798 3.704590 -0.080601
v 4.829798 4.623186 -0.080601
v -2.137556 4.064259 0.644033
v -2.137556 4.520430 0.644438
v -2.137556 4.537045 2.387657
v -2.137556 4.047643 2.387657
v -2.137556 4.047643 0.619377
v -2.137556 4.537045 0.619789
v -2.315037 4.520430 2.363005
v -2.315037 4.064259 2.363005
v -2.315037 4.064259 0.644033
v -2.315037 4.520430 0.644438
v -2.145195 4.493145 0.573070
v -2.147782 4.483536 0.573070
v -2.145195 4.493145 2.434171
v -2.147782 4.483536 2.434171
v -2.203031 4.508715 0.573070
v -2.205617 4.499106 0.573070
v -2.203031 4.508715 2.434171
v -2.205617 4.499106 2.434171
v -2.145195 4.465275 0.573070
v -2.147782 4.455667 0.573070
v -2.145195 4.465275 2.434171
v -2.147782 4.455667 2.434171
v -2.203031 4.480845 0.573070
v -2.205617 4.471236 0.573070
v -2.203031 4.480845 2.434171
v -2.205617 4.471236 2.434171
v -2.145195 4.437234 0.573070
v -2.147782 4.427626 0.573070
v -2.145195 4.437234 2.434171
v -2.147782 4.427626 2.434171
v -2.203031 4.452804 0.573070
v -2.205617 4.443195 0.573070
v -2.203031 4.452804 2.434171
v -2.205617 4.443195 2.434171
v -2.145195 4.412231 0.573070
v -2.147782 4.402622 0.573070
v -2.145195 4.412231 2.434171
v -2.147782 4.402622 2.434171
v -2.203031 4.427801 0.573070
v -2.205617 4.418192 0.573070
v -2.203031 4.427801 2.434171
v -2.205617 4.418192 2.434171
v -2.145195 4.384361 0.573070
v -2.147782 4.374753 0.573070
v -2.145195 4.384361 2.434171
v -2.147782 4.374753 2.434171
v -2.203031 4.399931 0.573070
v -2.205617 4.390322 0.573070
v -2.203031 4.399931 2.434171
v -2.205617 4.390322 2.434171
v -2.145195 4.356320 0.573070
v -2.147782 4.346712 0.573070
v -2.145195 4.356320 2.434171
v -2.147782 4.346712 2.434171
v -2.203031 4.371890 0.573070
v -2.205617 4.362281 0.573070
v -2.203031 4.371890 2.434171
v -2.205617 4.362281 2.434171
v -2.145195 4.325290 0.573070
v -2.147782 4.315681 0.573070
v -2.145195 4.325290 2.434171
v -2.147782 4.315681 2.434171
v -2.203031 4.340859 0.573070
v -2.205617 4.331251 0.573070
v -2.203031 4.340859 2.434171
v -2.205617 4.331251 2.434171
v -2.145195 4.297420 0.573070
v -2.147782 4.287811 0.573070
v -2.145195 4.297420 2.434171
v -2.147782 4.287811 2.434171
v -2.203031 4.312990 0.573070
v -2.205617 4.303381 0.573070
v -2.203031 4.312990 2.434171
v -2.205617 4.303381 2.434171
v -2.145195 4.269379 0.573070
v -2.147782 4.259770 0.573070
v -2.145195 4.269379 2.434171
v -2.147782 4.259770 2.434171
v -2.203031 4.284949 0.573070
v -2.205617 4.275340 0.573070
v -2.203031 4.284949 2.434171
v -2.205617 4.275340 2.434171
v -2.145195 4.244376 0.573070
v -2.147782 4.234767 0.573070
v -2.145195 4.244376 2.434171
v -2.147782 4.234767 2.434171
v -2.203031 4.259945 0.573070
v -2.205617 4.250337 0.573070
v -2.203031 4.259945 2.434171
v -2.205617 4.250337 2.434171
v -2.145195 4.216506 0.573070
v -2.147782 4.206897 0.573070
v -2.145195 4.216506 2.434171
v -2.147782 4.206897 2.434171
v -2.203031 4.232076 0.573070
v -2.205617 4.222466 0.573070
v -2.203031 4.232076 2.434171
v -2.205617 4.222466 2.434171
v -2.145195 4.188465 0.573070
v -2.147782 4.178856 0.573070
v -2.145195 4.188465 2.434171
v -2.147782 4.178856 2.434171
v -2.203031 4.204035 0.573070
v -2.205617 4.194426 0.573070
v -2.203031 4.204035 2.434171
v -2.205617 4.194426 2.434171
v -2.145195 4.325290 0.573070
v -2.147782 4.315681 0.573070
v -2.145195 4.325290 2.434171
v -2.147782 4.315681 2.434171
v -2.203031 4.340859 0.573070
v -2.205617 4.331251 0.573070
v -2.203031 4.340859 2.434171
v -2.205617 4.331251 2.434171
v -2.145195 4.297420 0.573070
v -2.147782 4.287811 0.573070
v -2.145195 4.297420 2.434171
v -2.147782 4.287811 2.434171
v -2.203031 4.312990 0.573070
v -2.205617 4.303381 0.573070
v -2.203031 4.312990 2.434171
v -2.205617 4.303381 2.434171
v -2.145195 4.269379 0.573070
v -2.147782 4.259770 0.573070
v -2.145195 4.269379 2.434171
v -2.147782 4.259770 2.434171
v -2.203031 4.284949 0.573070
v -2.205617 4.275340 0.573070
v -2.203031 4.284949 2.434171
v -2.205617 4.275340 2.434171
v -2.145195 4.244376 0.573070
v -2.147782 4.234767 0.573070
v -2.145195 4.244376 2.434171
v -2.147782 4.234767 2.434171
v -2.203031 4.259945 0.573070
v -2.205617 4.250337 0.573070
v -2.203031 4.259945 2.434171
v -2.205617 4.250337 2.434171
v -2.145195 4.216506 0.573070
v -2.147782 4.206897 0.573070
v -2.145195 4.216506 2.434171
v -2.147782 4.206897 2.434171
v -2.203031 4.232076 0.573070
v -2.205617 4.222466 0.573070
v -2.203031 4.232076 2.434171
v -2.205617 4.222466 2.434171
v -2.145195 4.188465 0.573070
v -2.147782 4.178856 0.573070
v -2.145195 4.188465 2.434171
v -2.147782 4.178856 2.434171
v -2.203031 4.204035 0.573070
v -2.205617 4.194426 0.573070
v -2.203031 4.204035 2.434171
v -2.205617 4.194426 2.434171
v -2.145195 4.244376 0.573070
v -2.147782 4.234767 0.573070
v -2.145195 4.244376 2.434171
v -2.147782 4.234767 2.434171
v -2.203031 4.259945 0.573070
v -2.205617 4.250337 0.573070
v -2.203031 4.259945 2.434171
v -2.205617 4.250337 2.434171
v -2.145195 4.216506 0.573070
v -2.147782 4.206897 0.573070
v -2.145195 4.216506 2.434171
v -2.147782 4.206897 2.434171
v -2.203031 4.232076 0.573070
v -2.205617 4.222466 0.573070
v -2.203031 4.232076 2.434171
v -2.205617 4.222466 2.434171
v -2.145195 4.188465 0.573070
v -2.147782 4.178856 0.573070
v -2.145195 4.188465 2.434171
v -2.147782 4.178856 2.434171
v -2.203031 4.204035 0.573070
v -2.205617 4.194426 0.573070
v -2.203031 4.204035 2.434171
v -2.205617 4.194426 2.434171
v -2.145195 4.162092 0.573070
v -2.147782 4.152483 0.573070
v -2.145195 4.162092 2.434171
v -2.147782 4.152483 2.434171
v -2.203031 4.177661 0.573070
v -2.205617 4.168053 0.573070
v -2.203031 4.177661 2.434171
v -2.205617 4.168053 2.434171
v -2.145195 4.137088 0.573070
v -2.147782 4.127480 0.573070
v -2.145195 4.137088 2.434171
v -2.147782 4.127480 2.434171
v -2.203031 4.152658 0.573070
v -2.205617 4.143049 0.573070
v -2.203031 4.152658 2.434171
v -2.205617 4.143049 2.434171
v -2.145195 4.109219 0.573070
v -2.147782 4.099610 0.573070
v -2.145195 4.109219 2.434171
v -2.147782 4.099610 2.434171
v -2.203031 4.124788 0.573070
v -2.205617 4.115179 0.573070
v -2.203031 4.124788 2.434171
v -2.205617 4.115179 2.434171
v -2.145195 4.081178 0.573070
v -2.147782 4.071569 0.573070
v -2.145195 4.081178 2.434171
v -2.147782 4.071569 2.434171
v -2.203031 4.096747 0.573070
v -2.205617 4.087139 0.573070
v -2.203031 4.096747 2.434171
v -2.205617 4.087139 2.434171
vn -0.0571 -0.9969 -0.0545
vn 0.1672 0.9729 0.1595
vn -0.0571 -0.9969 0.0545
vn 0.1671 0.9729 -0.1595
vn 0.0571 -0.9969 -0.0545
vn -0.1671 0.9729 0.1595
vn 0.0571 -0.9969 0.0545
vn -0.1672 0.9729 -0.1595
vn 0.1672 -0.9729 -0.1595
vn 0.1672 -0.9729 0.1595
vn -0.1672 -0.9729 -0.1595
vn -0.1672 -0.9729 0.1595
vn -0.4073 -0.8311 0.3787
vn -0.4073 -0.8311 -0.3787
vn 0.4073 -0.8311 0.3787
vn 0.4533 0.8796 -0.1442
vn -0.4556 -0.7739 0.4400
vn -0.4556 -0.7739 -0.4400
vn 0.4556 -0.7739 0.4400
vn 0.4556 -0.7739 -0.4400
vn -0.1671 -0.9729 0.1595
vn -0.1671 -0.9729 -0.1595
vn 0.1671 -0.9729 0.1595
vn 0.4533 -0.8796 -0.1442
vn 0.1671 -0.9729 -0.1595
vn 0.1671 0.9729 0.1595
vn -0.1671 0.9729 -0.1595
vn 0.4534 0.8796 0.1442
vn 0.4533 -0.8796 0.1442
vn 0.4073 -0.8311 -0.3787
vn 0.7558 -0.6548 -0.0000
vn 0.1693 -0.9856 -0.0000
vn 0.1672 0.9729 0.1596
vn 0.4932 0.7665 -0.4112
vn 0.0456 -0.9930 -0.1090
vn 0.4933 0.7665 0.4112
vn 0.0455 -0.9930 0.1090
vn -0.0456 0.9930 -0.1090
vn -0.4932 -0.7665 -0.4112
vn -0.0455 0.9930 0.1090
vn -0.4933 -0.7665 0.4112
vn 0.0455 -0.9930 -0.1090
vt 0.625000 0.000000
vt 0.375000 0.250000
vt 0.375000 0.000000
vt 0.625000 0.250000
vt 0.375000 0.500000
vt 0.625000 0.500000
vt 0.375000 0.750000
vt 0.625000 0.750000
vt 0.375000 1.000000
vt 0.127554 0.747446
vt 0.372446 0.747446
vt 0.875000 0.500000
vt 0.127554 0.502554
vt 0.125000 0.750000
vt 0.125000 0.500000
vt 0.372446 0.502554
vt 0.129581 0.745914
vt 0.370419 0.745914
vt 0.129581 0.504086
vt 0.370419 0.504086
vt 0.370419 0.700342
vt 0.370419 0.700121
vt 0.370419 0.700761
vt 0.370419 0.745276
vt 0.370419 0.745278
vt 0.370419 0.700976
vt 0.625000 1.000000
vt 0.875000 0.750000
s 1
usemtl 材质.017
f 2/1/2 10/3/10 9/2/9
f 4/4/4 9/2/9 11/5/11
f 8/6/8 11/5/11 12/7/12
f 6/8/6 12/7/12 10/9/10
f 1/10/1 5/11/5 20/11/20
f 4/12/4 8/6/8 6/8/6
f 3/13/3 9/15/9 10/14/10
f 3/13/3 7/16/7 11/5/11
f 7/16/7 5/11/5 12/7/12
f 1/10/1 10/14/10 12/7/12
f 14/17/14 36/18/30 35/18/25
f 7/16/7 3/13/3 17/13/17
f 5/11/5 7/16/7 19/16/19
f 3/13/3 1/10/1 18/10/18
f 13/19/13 17/13/17 18/10/18
f 13/19/13 15/20/15 19/16/19
f 37/21/31 20/11/20 19/16/19
f 14/17/14 18/10/18 20/11/20
f 23/20/23 22/17/22 38/22/32
f 15/20/15 13/19/13 21/19/21
f 37/21/31 15/20/15 23/20/23
f 13/19/13 14/17/14 22/17/22
f 26/1/25 25/3/4 27/2/26
f 28/4/23 27/2/26 31/5/6
f 32/6/21 31/5/6 29/7/27
f 30/8/22 29/7/27 25/9/4
f 31/5/6 27/15/26 25/14/4
f 28/12/23 32/6/21 30/8/22
f 34/23/29 24/24/24 39/24/25
f 16/25/16 24/24/24 35/18/25
f 33/26/28 16/25/16 36/18/30
f 24/24/24 34/23/29 38/22/32
f 33/26/28 37/21/31 38/22/32
f 42/23/23 39/24/25 40/25/4
f 24/24/24 16/25/16 40/25/4
f 33/26/28 34/23/29 42/23/23
f 16/25/16 33/26/28 41/26/33
f 44/1/35 43/3/34 45/2/36
f 45/2/36 49/5/40 50/6/41
f 50/6/41 49/5/40 47/7/38
f 48/8/39 47/7/38 43/9/34
f 49/5/40 45/15/36 43/14/34
f 46/12/37 50/6/41 48/8/39
f 52/1/35 51/3/34 53/2/36
f 53/2/36 57/5/40 58/6/41
f 58/6/41 57/5/40 55/7/38
f 56/8/39 55/7/38 51/9/34
f 57/5/40 53/15/36 51/14/34
f 54/12/37 58/6/41 56/8/39
f 60/1/35 59/3/34 61/2/36
f 61/2/36 65/5/40 66/6/41
f 66/6/41 65/5/40 63/7/38
f 64/8/39 63/7/38 59/9/34
f 65/5/40 61/15/36 59/14/34
f 62/12/37 66/6/41 64/8/39
f 68/1/35 67/3/34 69/2/36
f 69/2/36 73/5/40 74/6/41
f 74/6/41 73/5/40 71/7/38
f 72/8/39 71/7/38 67/9/34
f 73/5/40 69/15/36 67/14/34
f 70/12/37 74/6/41 72/8/39
f 76/1/42 75/3/34 77/2/36
f 77/2/36 81/5/40 82/6/41
f 82/6/41 81/5/40 79/7/38
f 80/8/39 79/7/38 75/9/34
f 81/5/40 77/15/36 75/14/34
f 78/12/37 82/6/41 80/8/39
f 84/1/35 83/3/34 85/2/36
f 85/2/36 89/5/40 90/6/41
f 90/6/41 89/5/40 87/7/38
f 88/8/39 87/7/38 83/9/34
f 89/5/40 85/15/36 83/14/34
f 86/12/37 90/6/41 88/8/39
f 92/1/42 91/3/34 93/2/36
f 93/2/36 97/5/40 98/6/41
f 98/6/41 97/5/40 95/7/38
f 96/8/39 95/7/38 91/9/34
f 97/5/40 93/15/36 91/14/34
f 94/12/37 98/6/41 96/8/39
f 100/1/35 99/3/34 101/2/36
f 101/2/36 105/5/40 106/6/41
f 106/6/41 105/5/40 103/7/38
f 104/8/39 103/7/38 99/9/34
f 105/5/40 101/15/36 99/14/34
f 102/12/37 106/6/41 104/8/39
f 108/1/35 107/3/34 109/2/36
f 109/2/36 113/5/40 114/6/41
f 114/6/41 113/5/40 111/7/38
f 112/8/39 111/7/38 107/9/34
f 113/5/40 109/15/36 107/14/34
f 110/12/37 114/6/41 112/8/39
f 116/1/35 115/3/34 117/2/36
f 117/2/36 121/5/40 122/6/41
f 122/6/41 121/5/40 119/7/38
f 120/8/39 119/7/38 115/9/34
f 121/5/40 117/15/36 115/14/34
f 118/12/37 122/6/41 120/8/39
f 124/1/35 123/3/34 125/2/36
f 125/2/36 129/5/40 130/6/41
f 130/6/41 129/5/40 127/7/38
f 128/8/39 127/7/38 123/9/34
f 129/5/40 125/15/36 123/14/34
f 126/12/37 130/6/41 128/8/39
f 132/1/35 131/3/34 133/2/36
f 133/2/36 137/5/40 138/6/41
f 138/6/41 137/5/40 135/7/38
f 136/8/39 135/7/38 131/9/34
f 137/5/40 133/15/36 131/14/34
f 134/12/37 138/6/41 136/8/39
f 140/1/42 139/3/34 141/2/36
f 141/2/36 145/5/40 146/6/41
f 146/6/41 145/5/40 143/7/38
f 144/8/39 143/7/38 139/9/34
f 145/5/40 141/15/36 139/14/34
f 142/12/37 146/6/41 144/8/39
f 148/1/35 147/3/34 149/2/36
f 149/2/36 153/5/40 154/6/41
f 154/6/41 153/5/40 151/7/38
f 152/8/39 151/7/38 147/9/34
f 153/5/40 149/15/36 147/14/34
f 150/12/37 154/6/41 152/8/39
f 156/1/35 155/3/34 157/2/36
f 157/2/36 161/5/40 162/6/41
f 162/6/41 161/5/40 159/7/38
f 160/8/39 159/7/38 155/9/34
f 161/5/40 157/15/36 155/14/34
f 158/12/37 162/6/41 160/8/39
f 164/1/35 163/3/34 165/2/36
f 165/2/36 169/5/40 170/6/41
f 170/6/41 169/5/40 167/7/38
f 168/8/39 167/7/38 163/9/34
f 169/5/40 165/15/36 163/14/34
f 166/12/37 170/6/41 168/8/39
f 172/1/35 171/3/34 173/2/36
f 173/2/36 177/5/40 178/6/41
f 178/6/41 177/5/40 175/7/38
f 176/8/39 175/7/38 171/9/34
f 177/5/40 173/15/36 171/14/34
f 174/12/37 178/6/41 176/8/39
f 180/1/35 179/3/34 181/2/36
f 181/2/36 185/5/40 186/6/41
f 186/6/41 185/5/40 183/7/38
f 184/8/39 183/7/38 179/9/34
f 185/5/40 181/15/36 179/14/34
f 182/12/37 186/6/41 184/8/39
f 188/1/35 187/3/34 189/2/36
f 189/2/36 193/5/40 194/6/41
f 194/6/41 193/5/40 191/7/38
f 192/8/39 191/7/38 187/9/34
f 193/5/40 189/15/36 187/14/34
f 190/12/37 194/6/41 192/8/39
f 196/1/35 195/3/34 197/2/36
f 197/2/36 201/5/40 202/6/41
f 202/6/41 201/5/40 199/7/38
f 200/8/39 199/7/38 195/9/34
f 201/5/40 197/15/36 195/14/34
f 198/12/37 202/6/41 200/8/39
f 204/1/35 203/3/34 205/2/36
f 205/2/36 209/5/40 210/6/41
f 210/6/41 209/5/40 207/7/38
f 208/8/39 207/7/38 203/9/34
f 209/5/40 205/15/36 203/14/34
f 206/12/37 210/6/41 208/8/39
f 212/1/42 211/3/34 213/2/36
f 213/2/36 217/5/40 218/6/41
f 218/6/41 217/5/40 215/7/38
f 216/8/39 215/7/38 211/9/34
f 217/5/40 213/15/36 211/14/34
f 214/12/37 218/6/41 216/8/39
f 220/1/42 219/3/34 221/2/36
f 221/2/36 225/5/40 226/6/41
f 226/6/41 225/5/40 223/7/38
f 224/8/39 223/7/38 219/9/34
f 225/5/40 221/15/36 219/14/34
f 222/12/37 226/6/41 224/8/39
f 228/1/35 227/3/34 229/2/36
f 229/2/36 233/5/40 234/6/41
f 234/6/41 233/5/40 231/7/38
f 232/8/39 231/7/38 227/9/34
f 233/5/40 229/15/36 227/14/34
f 230/12/37 234/6/41 232/8/39
f 236/1/35 235/3/34 237/2/36
f 237/2/36 241/5/40 242/6/41
f 242/6/41 241/5/40 239/7/38
f 240/8/39 239/7/38 235/9/34
f 241/5/40 237/15/36 235/14/34
f 238/12/37 242/6/41 240/8/39
f 2/1/2 9/2/9 4/4/4
f 4/4/4 11/5/11 8/6/8
f 8/6/8 12/7/12 6/8/6
f 6/8/6 10/9/10 2/27/2
f 1/10/1 20/11/20 18/10/18
f 4/12/4 6/8/6 2/28/2
f 3/13/3 10/14/10 1/10/1
f 3/13/3 11/5/11 9/15/9
f 7/16/7 12/7/12 11/5/11
f 1/10/1 12/7/12 5/11/5
f 14/17/14 35/18/25 22/17/22
f 7/16/7 17/13/17 19/16/19
f 5/11/5 19/16/19 20/11/20
f 3/13/3 18/10/18 17/13/17
f 13/19/13 18/10/18 14/17/14
f 13/19/13 19/16/19 17/13/17
f 20/11/20 37/21/31 36/18/30
f 37/21/31 19/16/19 15/20/15
f 14/17/14 20/11/20 36/18/30
f 22/17/22 23/20/23 21/19/21
f 38/22/32 22/17/22 35/18/25
f 15/20/15 21/19/21 23/20/23
f 37/21/31 23/20/23 38/22/32
f 13/19/13 22/17/22 21/19/21
f 26/1/25 27/2/26 28/4/23
f 28/4/23 31/5/6 32/6/21
f 32/6/21 29/7/27 30/8/22
f 30/8/22 25/9/4 26/27/25
f 31/5/6 25/14/4 29/7/27
f 28/12/23 30/8/22 26/28/25
f 34/23/29 39/24/25 42/23/23
f 16/25/16 35/18/25 36/18/30
f 33/26/28 36/18/30 37/21/31
f 24/24/24 38/22/32 35/18/25
f 33/26/28 38/22/32 34/23/29
f 42/23/23 40/25/4 41/26/33
f 24/24/24 40/25/4 39/24/25
f 33/26/28 42/23/23 41/26/33
f 16/25/16 41/26/33 40/25/4
f 44/1/35 45/2/36 46/4/37
f 45/2/36 50/6/41 46/4/37
f 50/6/41 47/7/38 48/8/39
f 48/8/39 43/9/34 44/27/35
f 49/5/40 43/14/34 47/7/38
f 46/12/37 48/8/39 44/28/35
f 52/1/35 53/2/36 54/4/37
f 53/2/36 58/6/41 54/4/37
f 58/6/41 55/7/38 56/8/39
f 56/8/39 51/9/34 52/27/35
f 57/5/40 51/14/34 55/7/38
f 54/12/37 56/8/39 52/28/35
f 60/1/35 61/2/36 62/4/37
f 61/2/36 66/6/41 62/4/37
f 66/6/41 63/7/38 64/8/39
f 64/8/39 59/9/34 60/27/35
f 65/5/40 59/14/34 63/7/38
f 62/12/37 64/8/39 60/28/35
f 68/1/35 69/2/36 70/4/37
f 69/2/36 74/6/41 70/4/37
f 74/6/41 71/7/38 72/8/39
f 72/8/39 67/9/34 68/27/35
f 73/5/40 67/14/34 71/7/38
f 70/12/37 72/8/39 68/28/35
f 76/1/42 77/2/36 78/4/37
f 77/2/36 82/6/41 78/4/37
f 82/6/41 79/7/38 80/8/39
f 80/8/39 75/9/34 76/27/42
f 81/5/40 75/14/34 79/7/38
f 78/12/37 80/8/39 76/28/42
f 84/1/35 85/2/36 86/4/37
f 85/2/36 90/6/41 86/4/37
f 90/6/41 87/7/38 88/8/39
f 88/8/39 83/9/34 84/27/35
f 89/5/40 83/14/34 87/7/38
f 86/12/37 88/8/39 84/28/35
f 92/1/42 93/2/36 94/4/37
f 93/2/36 98/6/41 94/4/37
f 98/6/41 95/7/38 96/8/39
f 96/8/39 91/9/34 92/27/42
f 97/5/40 91/14/34 95/7/38
f 94/12/37 96/8/39 92/28/42
f 100/1/35 101/2/36 102/4/37
f 101/2/36 106/6/41 102/4/37
f 106/6/41 103/7/38 104/8/39
f 104/8/39 99/9/34 100/27/35
f 105/5/40 99/14/34 103/7/38
f 102/12/37 104/8/39 100/28/35
f 108/1/35 109/2/36 110/4/37
f 109/2/36 114/6/41 110/4/37
f 114/6/41 111/7/38 112/8/39
f 112/8/39 107/9/34 108/27/35
f 113/5/40 107/14/34 111/7/38
f 110/12/37 112/8/39 108/28/35
f 116/1/35 117/2/36 118/4/37
f 117/2/36 122/6/41 118/4/37
f 122/6/41 119/7/38 120/8/39
f 120/8/39 115/9/34 116/27/35
f 121/5/40 115/14/34 119/7/38
f 118/12/37 120/8/39 116/28/35
f 124/1/35 125/2/36 126/4/37
f 125/2/36 130/6/41 126/4/37
f 130/6/41 127/7/38 128/8/39
f 128/8/39 123/9/34 124/27/35
f 129/5/40 123/14/34 127/7/38
f 126/12/37 128/8/39 124/28/35
f 132/1/35 133/2/36 134/4/37
f 133/2/36 138/6/41 134/4/37
f 138/6/41 135/7/38 136/8/39
f 136/8/39 131/9/34 132/27/35
f 137/5/40 131/14/34 135/7/38
f 134/12/37 136/8/39 132/28/35
f 140/1/42 141/2/36 142/4/37
f 141/2/36 146/6/41 142/4/37
f 146/6/41 143/7/38 144/8/39
f 144/8/39 139/9/34 140/27/42
f 145/5/40 139/14/34 143/7/38
f 142/12/37 144/8/39 140/28/42
f 148/1/35 149/2/36 150/4/37
f 149/2/36 154/6/41 150/4/37
f 154/6/41 151/7/38 152/8/39
f 152/8/39 147/9/34 148/27/35
f 153/5/40 147/14/34 151/7/38
f 150/12/37 152/8/39 148/28/35
f 156/1/35 157/2/36 158/4/37
f 157/2/36 162/6/41 158/4/37
f 162/6/41 159/7/38 160/8/39
f 160/8/39 155/9/34 156/27/35
f 161/5/40 155/14/34 159/7/38
f 158/12/37 160/8/39 156/28/35
f 164/1/35 165/2/36 166/4/37
f 165/2/36 170/6/41 166/4/37
f 170/6/41 167/7/38 168/8/39
f 168/8/39 163/9/34 164/27/35
f 169/5/40 163/14/34 167/7/38
f 166/12/37 168/8/39 164/28/35
f 172/1/35 173/2/36 174/4/37
f 173/2/36 178/6/41 174/4/37
f 178/6/41 175/7/38 176/8/39
f 176/8/39 171/9/34 172/27/35
f 177/5/40 171/14/34 175/7/38
f 174/12/37 176/8/39 172/28/35
f 180/1/35 181/2/36 182/4/37
f 181/2/36 186/6/41 182/4/37
f 186/6/41 183/7/38 184/8/39
f 184/8/39 179/9/34 180/27/35
f 185/5/40 179/14/34 183/7/38
f 182/12/37 184/8/39 180/28/35
f 188/1/35 189/2/36 190/4/37
f 189/2/36 194/6/41 190/4/37
f 194/6/41 191/7/38 192/8/39
f 192/8/39 187/9/34 188/27/35
f 193/5/40 187/14/34 191/7/38
f 190/12/37 192/8/39 188/28/35
f 196/1/35 197/2/36 198/4/37
f 197/2/36 202/6/41 198/4/37
f 202/6/41 199/7/38 200/8/39
f 200/8/39 195/9/34 196/27/35
f 201/5/40 195/14/34 199/7/38
f 198/12/37 200/8/39 196/28/35
f 204/1/35 205/2/36 206/4/37
f 205/2/36 210/6/41 206/4/37
f 210/6/41 207/7/38 208/8/39
f 208/8/39 203/9/34 204/27/35
f 209/5/40 203/14/34 207/7/38
f 206/12/37 208/8/39 204/28/35
f 212/1/42 213/2/36 214/4/37
f 213/2/36 218/6/41 214/4/37
f 218/6/41 215/7/38 216/8/39
f 216/8/39 211/9/34 212/27/42
f 217/5/40 211/14/34 215/7/38
f 214/12/37 216/8/39 212/28/42
f 220/1/42 221/2/36 222/4/37
f 221/2/36 226/6/41 222/4/37
f 226/6/41 223/7/38 224/8/39
f 224/8/39 219/9/34 220/27/42
f 225/5/40 219/14/34 223/7/38
f 222/12/37 224/8/39 220/28/42
f 228/1/35 229/2/36 230/4/37
f 229/2/36 234/6/41 230/4/37
f 234/6/41 231/7/38 232/8/39
f 232/8/39 227/9/34 228/27/35
f 233/5/40 227/14/34 231/7/38
f 230/12/37 232/8/39 228/28/35
f 236/1/35 237/2/36 238/4/37
f 237/2/36 242/6/41 238/4/37
f 242/6/41 239/7/38 240/8/39
f 240/8/39 235/9/34 236/27/35
f 241/5/40 235/14/34 239/7/38
f 238/12/37 240/8/39 236/28/35
