# Blender 4.2.1 LTS
# www.blender.org
mtllib ceilinglight.mtl
o 立方体.043
v 0.032406 4.537799 -4.769168
v 0.032406 4.537799 -3.569169
v 0.053132 4.487922 -4.748442
v 0.053132 4.487922 -3.589895
v 1.232406 4.537799 -4.769168
v 1.232406 4.537799 -3.569169
v 1.211680 4.487922 -4.748442
v 1.211680 4.487922 -3.589895
v 0.032406 4.472106 -3.569169
v 0.032406 4.472106 -4.769168
v 1.232406 4.472106 -4.769168
v 1.232406 4.472106 -3.569169
v 0.053132 4.496627 -3.589895
v 0.053132 4.496627 -4.748442
v 1.211680 4.496627 -4.748442
v 1.211680 4.496627 -3.589895
vn -1.0000 -0.0000 -0.0000
vn 1.0000 -0.0000 -0.0000
vn -0.0000 1.0000 -0.0000
vn -0.0000 -0.0000 -1.0000
vn -0.0000 -0.0000 1.0000
vn 0.6067 -0.7950 -0.0000
vn -0.0000 -0.7950 0.6067
vn -0.0000 -0.7950 -0.6067
vn -0.6067 -0.7950 -0.0000
vn -0.0000 -1.0000 -0.0000
vt 0.625000 0.000000
vt 0.375000 0.250000
vt 0.375000 0.000000
vt 0.379318 0.495682
vt 0.620682 0.495682
vt 0.625000 0.500000
vt 0.375000 0.750000
vt 0.375000 0.500000
vt 0.625000 0.750000
vt 0.375000 1.000000
vt 0.125000 0.750000
vt 0.125000 0.500000
vt 0.875000 0.500000
vt 0.379318 0.254318
vt 0.625000 0.250000
vt 0.620682 0.254318
vt 0.978848 1.000000
vt 0.013573 0.000000
vt 0.978848 0.000000
vt 0.625000 1.000000
vt 0.875000 0.750000
vt 0.013573 1.000000
s 0
usemtl 材质.019
f 13/17/10 14/19/10 15/18/10
f 13/17/10 15/18/10 16/22/10
