# Blender 4.3.2
# www.blender.org
mtllib leftmiddlebox.mtl
o 立方体.022
v -3.105896 0.604547 -3.650123
v -3.105896 0.607373 -3.631944
v -3.112195 0.607373 -3.650123
v -3.105896 0.604924 -3.641046
v -3.109041 0.604924 -3.650123
v -3.108908 0.605291 -3.641430
v -3.109041 0.607373 -3.634373
v -3.105896 0.605962 -3.634373
v -3.108908 0.606021 -3.636732
v -3.111353 0.605962 -3.650123
v -3.111353 0.607373 -3.641046
v -3.110536 0.606021 -3.641430
v -3.105896 0.684220 -3.631944
v -3.105896 0.687046 -3.650123
v -3.112195 0.684220 -3.650123
v -3.105896 0.685631 -3.634373
v -3.109041 0.684220 -3.634373
v -3.108908 0.685572 -3.636732
v -3.109041 0.686669 -3.650123
v -3.105896 0.686669 -3.641046
v -3.108908 0.686302 -3.641430
v -3.111353 0.684220 -3.641046
v -3.111353 0.685631 -3.650123
v -3.110536 0.685572 -3.641430
v -3.105896 0.604547 -4.144516
v -3.112195 0.607373 -4.144516
v -3.105896 0.607373 -4.162694
v -3.109041 0.604924 -4.144516
v -3.105896 0.604924 -4.153593
v -3.108908 0.605291 -4.153209
v -3.111353 0.607373 -4.153593
v -3.111353 0.605962 -4.144516
v -3.110536 0.606021 -4.153209
v -3.105896 0.605962 -4.160266
v -3.109041 0.607373 -4.160266
v -3.108908 0.606021 -4.157907
v -3.105896 0.687046 -4.144516
v -3.105896 0.684220 -4.162694
v -3.112195 0.684220 -4.144516
v -3.105896 0.686669 -4.153593
v -3.109041 0.686669 -4.144516
v -3.108908 0.686302 -4.153209
v -3.109041 0.684220 -4.160266
v -3.105896 0.685631 -4.160266
v -3.108908 0.685572 -4.157907
v -3.111353 0.685631 -4.144516
v -3.111353 0.684220 -4.153593
v -3.110536 0.685572 -4.153209
v -2.934578 0.604547 -3.650123
v -2.928279 0.607373 -3.650123
v -2.934578 0.607373 -3.631944
v -2.931432 0.604924 -3.650123
v -2.934578 0.604924 -3.641046
v -2.931566 0.605291 -3.641430
v -2.929120 0.607373 -3.641046
v -2.929120 0.605962 -3.650123
v -2.929938 0.606021 -3.641430
v -2.934578 0.605962 -3.634373
v -2.931432 0.607373 -3.634373
v -2.931566 0.606021 -3.636732
v -2.934578 0.687046 -3.650123
v -2.934578 0.684220 -3.631944
v -2.928279 0.684220 -3.650123
v -2.934578 0.686669 -3.641046
v -2.931432 0.686669 -3.650123
v -2.931566 0.686302 -3.641430
v -2.931432 0.684220 -3.634373
v -2.934578 0.685631 -3.634373
v -2.931566 0.685572 -3.636732
v -2.929120 0.685631 -3.650123
v -2.929120 0.684220 -3.641046
v -2.929938 0.685572 -3.641430
v -2.934578 0.604547 -4.144516
v -2.934578 0.607373 -4.162694
v -2.928279 0.607373 -4.144516
v -2.934578 0.604924 -4.153593
v -2.931432 0.604924 -4.144516
v -2.931566 0.605291 -4.153209
v -2.931432 0.607373 -4.160266
v -2.934578 0.605962 -4.160266
v -2.931566 0.606021 -4.157907
v -2.929120 0.605962 -4.144516
v -2.929120 0.607373 -4.153593
v -2.929938 0.606021 -4.153209
v -2.934578 0.687046 -4.144516
v -2.928279 0.684220 -4.144516
v -2.934578 0.684220 -4.162694
v -2.931432 0.686669 -4.144516
v -2.934578 0.686669 -4.153593
v -2.931566 0.686302 -4.153209
v -2.929120 0.684220 -4.153593
v -2.929120 0.685631 -4.144516
v -2.929938 0.685572 -4.153209
v -2.934578 0.685631 -4.160266
v -2.931432 0.684220 -4.160266
v -2.931566 0.685572 -4.157907
vn -0.0000 -0.0000 1.0000
vn 1.0000 -0.0000 -0.0000
vn -0.0000 1.0000 -0.0000
vn -1.0000 -0.0000 -0.0000
vn -0.0000 -0.0000 -1.0000
vn -0.1191 -0.9920 0.0413
vn -0.1385 -0.9786 0.1521
vn -0.3616 -0.8061 0.4684
vn -0.7869 -0.5536 0.2727
vn -0.8561 -0.5106 0.0794
vn -0.4089 -0.9115 0.0447
vn -0.4052 -0.9034 0.1404
vn -0.3616 0.8061 0.4684
vn -0.1385 0.9786 0.1521
vn -0.1191 0.9920 0.0413
vn -0.4089 0.9115 0.0447
vn -0.8561 0.5106 0.0794
vn -0.7869 0.5536 0.2727
vn -0.4052 0.9034 0.1404
vn -0.1191 -0.9920 -0.0413
vn -0.4089 -0.9115 -0.0447
vn -0.8561 -0.5106 -0.0794
vn -0.7869 -0.5536 -0.2727
vn -0.3616 -0.8061 -0.4684
vn -0.1385 -0.9786 -0.1521
vn -0.4052 -0.9034 -0.1404
vn -0.1191 0.9920 -0.0413
vn -0.1385 0.9786 -0.1521
vn -0.3616 0.8061 -0.4684
vn -0.7869 0.5536 -0.2727
vn -0.8561 0.5106 -0.0794
vn -0.4089 0.9115 -0.0447
vn -0.4052 0.9034 -0.1404
vn 0.1191 -0.9920 0.0413
vn 0.4089 -0.9115 0.0447
vn 0.8561 -0.5106 0.0794
vn 0.7869 -0.5536 0.2727
vn 0.3616 -0.8061 0.4684
vn 0.1385 -0.9786 0.1521
vn 0.4052 -0.9034 0.1404
vn 0.1191 0.9920 0.0413
vn 0.1385 0.9786 0.1521
vn 0.3616 0.8061 0.4684
vn 0.7869 0.5536 0.2727
vn 0.8561 0.5106 0.0794
vn 0.4089 0.9115 0.0447
vn 0.4052 0.9034 0.1404
vn 0.1191 -0.9920 -0.0413
vn 0.1385 -0.9786 -0.1521
vn 0.3616 -0.8061 -0.4684
vn 0.7869 -0.5536 -0.2727
vn 0.8561 -0.5106 -0.0794
vn 0.4089 -0.9115 -0.0447
vn 0.4052 -0.9034 -0.1404
vn 0.1191 0.9920 -0.0413
vn 0.4089 0.9115 -0.0447
vn 0.8561 0.5106 -0.0794
vn 0.7869 0.5536 -0.2727
vn 0.3616 0.8061 -0.4684
vn 0.1385 0.9786 -0.1521
vn 0.4052 0.9034 -0.1404
vn -0.1192 -0.9929 -0.0000
vn -0.4093 -0.9124 -0.0000
vn -0.8588 -0.5122 -0.0000
vn -0.6111 -0.0000 0.7915
vn -0.9449 -0.0000 0.3274
vn -0.9957 -0.0000 0.0923
vn -0.1192 0.9929 -0.0000
vn -0.4093 0.9124 -0.0000
vn -0.8588 0.5122 -0.0000
vn -0.6111 -0.0000 -0.7915
vn -0.9449 -0.0000 -0.3274
vn -0.9957 -0.0000 -0.0923
vn -0.0000 -0.9991 -0.0416
vn -0.0000 -0.9881 -0.1536
vn -0.0000 -0.8647 -0.5024
vn -0.0000 0.9991 -0.0416
vn -0.0000 0.9881 -0.1536
vn -0.0000 0.8647 -0.5024
vn 0.9957 -0.0000 -0.0923
vn 0.9449 -0.0000 -0.3274
vn 0.6111 -0.0000 -0.7915
vn 0.1192 -0.9929 -0.0000
vn 0.4093 -0.9124 -0.0000
vn 0.8588 -0.5122 -0.0000
vn 0.1192 0.9929 -0.0000
vn 0.4093 0.9124 -0.0000
vn 0.8588 0.5122 -0.0000
vn 0.6111 -0.0000 0.7915
vn 0.9449 -0.0000 0.3274
vn 0.9957 -0.0000 0.0923
vn -0.0000 -0.9991 0.0416
vn -0.0000 -0.9881 0.1536
vn -0.0000 -0.8647 0.5024
vn -0.0000 0.9991 0.0416
vn -0.0000 0.9881 0.1536
vn -0.0000 0.8647 0.5024
vn -0.0000 -1.0000 -0.0000
vn -0.1262 -0.9910 0.0437
vn -0.3661 -0.8162 0.4469
vn -0.8421 -0.5330 0.0828
vn -0.3661 0.8162 0.4469
vn -0.1262 0.9910 0.0437
vn -0.8421 0.5330 0.0828
vn -0.1262 -0.9910 -0.0437
vn -0.8421 -0.5330 -0.0828
vn -0.3661 -0.8162 -0.4469
vn -0.1262 0.9910 -0.0437
vn -0.3661 0.8162 -0.4469
vn -0.8421 0.5330 -0.0828
vn 0.1262 -0.9910 0.0437
vn 0.8421 -0.5330 0.0828
vn 0.3661 -0.8162 0.4469
vn 0.1262 0.9910 0.0437
vn 0.3661 0.8162 0.4469
vn 0.8421 0.5330 0.0828
vn 0.1262 -0.9910 -0.0437
vn 0.3661 -0.8162 -0.4469
vn 0.8421 -0.5330 -0.0828
vn 0.1262 0.9910 -0.0437
vn 0.8421 0.5330 -0.0828
vn 0.3661 0.8162 -0.4469
vt 0.616437 0.758563
vt 0.383563 0.991437
vt 0.383563 0.758563
vt 0.616437 0.508563
vt 0.383563 0.741437
vt 0.383563 0.508563
vt 0.866437 0.508563
vt 0.633563 0.741437
vt 0.633563 0.508563
vt 0.616437 0.008563
vt 0.383563 0.241437
vt 0.383563 0.008563
vt 0.616437 0.258563
vt 0.383563 0.491437
vt 0.383563 0.258563
vt 0.133563 0.745713
vt 0.129287 0.741437
vt 0.133563 0.741437
vt 0.129468 0.750000
vt 0.129468 0.745532
vt 0.383563 0.995713
vt 0.379287 0.991437
vt 0.383563 0.000000
vt 0.379468 0.002255
vt 0.383563 0.001144
vt 0.379287 0.008563
vt 0.383563 0.004287
vt 0.125000 0.741437
vt 0.127255 0.745532
vt 0.126144 0.741437
vt 0.125000 0.745532
vt 0.620713 0.991437
vt 0.616437 0.995713
vt 0.616437 0.991437
vt 0.625000 0.991437
vt 0.620532 0.995532
vt 0.870713 0.741437
vt 0.866437 0.745713
vt 0.866437 0.741437
vt 0.623856 0.008563
vt 0.625000 0.004468
vt 0.622745 0.004468
vt 0.616437 0.004287
vt 0.620713 0.008563
vt 0.616437 0.000000
vt 0.620532 0.004468
vt 0.625000 0.995532
vt 0.620532 1.000000
vt 0.129287 0.508563
vt 0.133563 0.504287
vt 0.133563 0.508563
vt 0.125000 0.504468
vt 0.129468 0.504468
vt 0.383563 0.245713
vt 0.379287 0.241437
vt 0.383563 0.250000
vt 0.379468 0.245532
vt 0.379287 0.258563
vt 0.383563 0.254287
vt 0.133563 0.500000
vt 0.129468 0.502255
vt 0.133563 0.501144
vt 0.129468 0.500000
vt 0.866437 0.504287
vt 0.870713 0.508563
vt 0.623856 0.258563
vt 0.625000 0.254468
vt 0.622745 0.254468
vt 0.616437 0.254287
vt 0.620713 0.258563
vt 0.616437 0.250000
vt 0.620532 0.254468
vt 0.620713 0.241437
vt 0.616437 0.245713
vt 0.616437 0.241437
vt 0.625000 0.241437
vt 0.620532 0.245532
vt 0.620532 0.250000
vt 0.370713 0.741437
vt 0.366437 0.745713
vt 0.366437 0.741437
vt 0.375000 0.745532
vt 0.370532 0.745532
vt 0.383563 0.745713
vt 0.379287 0.741437
vt 0.383563 0.750000
vt 0.379468 0.745532
vt 0.379287 0.758563
vt 0.383563 0.754287
vt 0.366437 0.750000
vt 0.370532 0.747745
vt 0.366437 0.748856
vt 0.370532 0.750000
vt 0.633563 0.745713
vt 0.629287 0.741437
vt 0.623856 0.758563
vt 0.625000 0.754468
vt 0.622745 0.754468
vt 0.616437 0.754287
vt 0.620713 0.758563
vt 0.616437 0.750000
vt 0.620532 0.754468
vt 0.620713 0.741437
vt 0.616437 0.745713
vt 0.616437 0.741437
vt 0.625000 0.741437
vt 0.620532 0.745532
vt 0.620532 0.750000
vt 0.366437 0.504287
vt 0.370713 0.508563
vt 0.366437 0.508563
vt 0.370532 0.500000
vt 0.370532 0.504468
vt 0.383563 0.495713
vt 0.379287 0.491437
vt 0.383563 0.500000
vt 0.379468 0.495532
vt 0.379287 0.508563
vt 0.383563 0.504287
vt 0.375000 0.508563
vt 0.379468 0.504468
vt 0.375000 0.504468
vt 0.629287 0.508563
vt 0.633563 0.504287
vt 0.625000 0.504468
vt 0.629468 0.504468
vt 0.616437 0.504287
vt 0.620713 0.508563
vt 0.616437 0.500000
vt 0.620532 0.504468
vt 0.620713 0.491437
vt 0.616437 0.495713
vt 0.616437 0.491437
vt 0.625000 0.491437
vt 0.620532 0.495532
vt 0.622745 0.504468
vt 0.620532 0.500000
vt 0.125000 0.508563
vt 0.625000 0.008563
vt 0.366437 0.500000
vt 0.625000 0.258563
vt 0.133563 0.750000
vt 0.625000 0.758563
vt 0.379468 0.995532
vt 0.379468 0.000000
vt 0.379468 0.004468
vt 0.870532 0.745532
vt 0.620532 0.000000
vt 0.379468 0.250000
vt 0.379468 0.254468
vt 0.870532 0.504468
vt 0.625000 0.245532
vt 0.375000 0.741437
vt 0.379468 0.750000
vt 0.379468 0.754468
vt 0.629468 0.745532
vt 0.625000 0.745532
vt 0.379468 0.500000
vt 0.625000 0.508563
vt 0.625000 0.495532
s 0
usemtl 材质.004
f 62/1/1 2/2/1 51/3/1
f 86/4/2 50/5/2 75/6/2
f 37/7/3 61/8/3 85/9/3
f 15/10/4 26/11/4 3/12/4
f 38/13/5 74/14/5 27/15/5
f 4/16/6 5/17/6 1/18/6
f 4/16/7 9/19/7 6/20/7
f 7/21/8 8/22/8 2/2/8
f 11/23/9 9/24/9 7/25/9
f 10/26/10 11/27/10 3/12/10
f 5/28/11 12/29/11 10/30/11
f 6/20/12 9/19/12 12/31/12
f 16/32/13 17/33/13 13/34/13
f 20/35/14 18/36/14 16/32/14
f 19/37/15 20/38/15 14/39/15
f 19/40/16 24/41/16 21/42/16
f 22/43/17 23/44/17 15/10/17
f 17/45/18 24/46/18 22/43/18
f 18/36/19 21/47/19 24/48/19
f 28/49/20 29/50/20 25/51/20
f 28/49/21 33/52/21 30/53/21
f 31/54/22 32/55/22 26/11/22
f 35/56/23 33/57/23 31/54/23
f 34/58/24 35/59/24 27/15/24
f 29/60/25 36/61/25 34/62/25
f 30/53/26 33/52/26 36/63/26
f 40/64/27 41/65/27 37/7/27
f 40/66/28 45/67/28 42/68/28
f 43/69/29 44/70/29 38/13/29
f 47/71/30 45/72/30 43/69/30
f 46/73/31 47/74/31 39/75/31
f 41/76/32 48/77/32 46/73/32
f 42/68/33 45/67/33 48/78/33
f 52/79/34 53/80/34 49/81/34
f 52/79/35 57/82/35 54/83/35
f 55/84/36 56/85/36 50/5/36
f 59/86/37 57/87/37 55/84/37
f 58/88/38 59/89/38 51/3/38
f 53/90/39 60/91/39 58/92/39
f 54/83/40 57/82/40 60/93/40
f 64/94/41 65/95/41 61/8/41
f 64/96/42 69/97/42 66/98/42
f 67/99/43 68/100/43 62/1/43
f 71/101/44 69/102/44 67/99/44
f 70/103/45 71/104/45 63/105/45
f 65/106/46 72/107/46 70/103/46
f 66/98/47 69/97/47 72/108/47
f 76/109/48 77/110/48 73/111/48
f 76/109/49 81/112/49 78/113/49
f 79/114/50 80/115/50 74/14/50
f 83/116/51 81/117/51 79/114/51
f 82/118/52 83/119/52 75/6/52
f 77/120/53 84/121/53 82/118/53
f 78/113/54 81/112/54 84/122/54
f 88/123/55 89/124/55 85/9/55
f 88/123/56 93/125/56 90/126/56
f 91/127/57 92/128/57 86/4/57
f 95/129/58 93/130/58 91/127/58
f 94/131/59 95/132/59 87/133/59
f 89/134/60 96/135/60 94/131/60
f 90/136/61 93/125/61 96/137/61
f 1/18/62 28/49/62 25/51/62
f 5/17/63 32/138/63 28/49/63
f 10/26/64 26/11/64 32/55/64
f 13/34/65 7/21/65 2/2/65
f 17/45/66 11/27/66 7/23/66
f 22/43/67 3/12/67 11/27/67
f 37/7/68 19/37/68 14/39/68
f 41/76/69 23/44/69 19/139/69
f 46/73/70 15/10/70 23/44/70
f 27/15/71 43/69/71 38/13/71
f 35/59/72 47/74/72 43/69/72
f 31/54/73 39/75/73 47/74/73
f 25/51/74 76/109/74 73/111/74
f 29/50/75 80/140/75 76/109/75
f 34/58/76 74/14/76 80/115/76
f 85/9/77 40/64/77 37/7/77
f 89/134/78 44/70/78 40/141/78
f 94/131/79 38/13/79 44/70/79
f 75/6/80 91/127/80 86/4/80
f 83/119/81 95/132/81 91/127/81
f 79/114/82 87/133/82 95/132/82
f 73/111/83 52/79/83 49/81/83
f 77/110/84 56/85/84 52/79/84
f 82/118/85 50/5/85 56/85/85
f 61/8/86 88/123/86 85/9/86
f 65/95/87 92/128/87 88/123/87
f 70/103/88 86/4/88 92/128/88
f 51/3/89 67/99/89 62/1/89
f 59/89/90 71/104/90 67/99/90
f 55/84/91 63/105/91 71/104/91
f 49/81/92 4/16/92 1/18/92
f 53/80/93 8/142/93 4/16/93
f 58/88/94 2/2/94 8/22/94
f 14/39/95 64/94/95 61/8/95
f 20/35/96 68/100/96 64/143/96
f 16/32/97 62/1/97 68/100/97
f 73/111/98 1/18/98 25/51/98
f 62/1/1 13/34/1 2/2/1
f 86/4/2 63/105/2 50/5/2
f 37/7/3 14/39/3 61/8/3
f 15/10/4 39/75/4 26/11/4
f 38/13/5 87/133/5 74/14/5
f 4/16/99 6/20/99 5/17/99
f 4/16/7 8/142/7 9/19/7
f 7/21/100 9/144/100 8/22/100
f 11/23/9 12/145/9 9/24/9
f 10/26/101 12/146/101 11/27/101
f 5/28/11 6/31/11 12/29/11
f 16/32/102 18/36/102 17/33/102
f 20/35/14 21/47/14 18/36/14
f 19/37/103 21/147/103 20/38/103
f 19/40/16 23/139/16 24/41/16
f 22/43/104 24/46/104 23/44/104
f 17/45/18 18/148/18 24/46/18
f 28/49/105 30/53/105 29/50/105
f 28/49/21 32/138/21 33/52/21
f 31/54/106 33/57/106 32/55/106
f 35/56/23 36/149/23 33/57/23
f 34/58/107 36/150/107 35/59/107
f 29/60/25 30/63/25 36/61/25
f 40/64/108 42/151/108 41/65/108
f 40/66/28 44/141/28 45/67/28
f 43/69/109 45/72/109 44/70/109
f 47/71/30 48/78/30 45/72/30
f 46/73/110 48/77/110 47/74/110
f 41/76/32 42/152/32 48/77/32
f 52/79/111 54/83/111 53/80/111
f 52/79/35 56/153/35 57/82/35
f 55/84/112 57/87/112 56/85/112
f 59/86/37 60/154/37 57/87/37
f 58/88/113 60/155/113 59/89/113
f 53/90/39 54/93/39 60/91/39
f 64/94/114 66/156/114 65/95/114
f 64/96/42 68/143/42 69/97/42
f 67/99/115 69/102/115 68/100/115
f 71/101/44 72/108/44 69/102/44
f 70/103/116 72/107/116 71/104/116
f 65/106/46 66/157/46 72/107/46
f 76/109/117 78/113/117 77/110/117
f 76/109/49 80/140/49 81/112/49
f 79/114/118 81/117/118 80/115/118
f 83/116/51 84/158/51 81/117/51
f 82/118/119 84/121/119 83/119/119
f 77/120/53 78/122/53 84/121/53
f 88/123/120 90/126/120 89/124/120
f 88/123/56 92/159/56 93/125/56
f 91/127/121 93/130/121 92/128/121
f 95/129/58 96/137/58 93/130/58
f 94/131/122 96/135/122 95/132/122
f 89/134/60 90/160/60 96/135/60
f 1/18/62 5/17/62 28/49/62
f 5/17/63 10/28/63 32/138/63
f 10/26/64 3/12/64 26/11/64
f 13/34/65 17/33/65 7/21/65
f 17/45/66 22/43/66 11/27/66
f 22/43/67 15/10/67 3/12/67
f 37/7/68 41/65/68 19/37/68
f 41/76/69 46/73/69 23/44/69
f 46/73/70 39/75/70 15/10/70
f 27/15/71 35/59/71 43/69/71
f 35/59/72 31/54/72 47/74/72
f 31/54/73 26/11/73 39/75/73
f 25/51/74 29/50/74 76/109/74
f 29/50/75 34/60/75 80/140/75
f 34/58/76 27/15/76 74/14/76
f 85/9/77 89/124/77 40/64/77
f 89/134/78 94/131/78 44/70/78
f 94/131/79 87/133/79 38/13/79
f 75/6/80 83/119/80 91/127/80
f 83/119/81 79/114/81 95/132/81
f 79/114/82 74/14/82 87/133/82
f 73/111/83 77/110/83 52/79/83
f 77/110/84 82/118/84 56/85/84
f 82/118/85 75/6/85 50/5/85
f 61/8/86 65/95/86 88/123/86
f 65/95/87 70/103/87 92/128/87
f 70/103/88 63/105/88 86/4/88
f 51/3/89 59/89/89 67/99/89
f 59/89/90 55/84/90 71/104/90
f 55/84/91 50/5/91 63/105/91
f 49/81/92 53/80/92 4/16/92
f 53/80/93 58/90/93 8/142/93
f 58/88/94 51/3/94 2/2/94
f 14/39/95 20/38/95 64/94/95
f 20/35/96 16/32/96 68/100/96
f 16/32/97 13/34/97 62/1/97
f 73/111/98 49/81/98 1/18/98
