# Blender 4.3.2
# www.blender.org
mtllib LMspirit.mtl
o 立方体.041
v 6.736957 2.789654 -3.277023
v 6.736957 3.203564 -3.277023
v 6.736957 2.789654 -4.982132
v 6.736957 3.203564 -4.982132
v 6.779097 2.664242 -3.031050
v 6.779097 3.328975 -3.031050
v 6.779097 2.664242 -5.228106
v 6.779097 3.328975 -5.228106
v 6.736957 2.683266 -5.210381
v 6.736957 2.683266 -3.048774
v 6.736957 3.309951 -3.048774
v 6.736957 3.309951 -5.210381
v 6.736957 2.664242 -5.228106
v 6.736957 2.664242 -3.031050
v 6.736957 3.328975 -3.031050
v 6.736957 3.328975 -5.228106
v 6.736957 2.785993 -4.964408
v 6.736957 2.785993 -3.294747
v 6.736957 3.207224 -3.294747
v 6.736957 3.207224 -4.964408
v 6.745745 2.683266 -3.048774
v 6.745745 2.789654 -3.277023
v 6.745745 2.789654 -4.982132
v 6.745745 2.683266 -5.210381
v 6.745745 3.309951 -3.048774
v 6.745745 3.203564 -3.277023
v 6.745745 3.309951 -5.210381
v 6.745745 3.203564 -4.982132
vn -0.0000 -0.0000 -1.0000
vn 1.0000 -0.0000 -0.0000
vn -0.0000 -0.0000 1.0000
vn -0.0000 -1.0000 -0.0000
vn -0.0000 1.0000 -0.0000
vn -1.0000 -0.0000 -0.0000
vt 0.625000 0.250000
vt 0.375000 0.500000
vt 0.375000 0.250000
vt 0.625000 0.500000
vt 0.375000 0.750000
vt 0.625000 0.750000
vt 0.375000 1.000000
vt 0.125000 0.750000
vt 0.125000 0.500000
vt 0.875000 0.500000
vt 0.385684 0.240436
vt 0.385684 0.009564
vt 0.615198 0.009074
vt 0.614316 0.240436
vt 0.624548 0.001169
vt 0.374588 0.000689
vt 0.374588 0.249311
vt 0.625412 0.249311
vt 0.375000 0.000000
vt 0.625000 0.000000
vt 0.385253 0.010253
vt 0.385253 0.239747
vt 0.614747 0.239747
vt 0.614747 0.010253
vt 0.000378 0.028852
vt 0.985921 0.011829
vt 1.003705 0.971148
vt 0.004155 0.979907
vt 0.999928 0.020093
vt 0.625000 1.000000
vt 0.875000 0.750000
vt 0.018162 0.988171
s 0
usemtl 材质.016
f 3/25/6 18/26/6 2/27/6
f 4/28/1 23/25/1 3/25/1
f 1/29/3 26/27/3 2/27/3
f 20/32/6 4/28/6 3/25/6
f 18/26/6 1/29/6 2/27/6
f 2/27/6 20/32/6 3/25/6
f 4/28/1 28/28/1 23/25/1
f 1/29/3 22/29/3 26/27/3
