# Blender 4.3.2
# www.blender.org
mtllib picture.mtl
o 立方体.036
v 4.277703 1.890226 -7.918668
v 4.277703 2.920140 -7.918668
v 4.308610 1.908015 -7.883975
v 4.308610 2.902351 -7.883975
v 6.067152 1.890226 -7.918668
v 6.067152 2.920140 -7.918668
v 6.036245 1.908015 -7.883975
v 6.036245 2.902351 -7.883975
v 4.277703 2.920140 -7.872972
v 4.277703 1.890226 -7.872972
v 6.067152 1.890226 -7.872972
v 6.067152 2.920140 -7.872972
v 4.308610 2.902351 -7.890029
v 4.308610 1.908015 -7.890029
v 6.036245 1.908015 -7.890029
v 6.036245 2.902351 -7.890029
vn -1.0000 -0.0000 -0.0000
vn 1.0000 -0.0000 -0.0000
vn -0.0000 -0.0000 -1.0000
vn -0.0000 -1.0000 -0.0000
vn -0.0000 1.0000 -0.0000
vn 0.3353 -0.0000 0.9421
vn -0.0000 0.5260 0.8505
vn -0.0000 -0.5260 0.8505
vn -0.3353 -0.0000 0.9421
vn -0.0000 -0.0000 1.0000
vt 0.625000 0.000000
vt 0.375000 0.250000
vt 0.375000 0.000000
vt 0.379318 0.495682
vt 0.620682 0.495682
vt 0.625000 0.500000
vt 0.375000 0.750000
vt 0.375000 0.500000
vt 0.625000 0.750000
vt 0.375000 1.000000
vt 0.125000 0.750000
vt 0.125000 0.500000
vt 0.875000 0.500000
vt 0.379318 0.254318
vt 0.625000 0.250000
vt 0.620682 0.254318
vt 0.978848 1.000000
vt 0.013573 0.000000
vt 0.978848 0.000000
vt 0.625000 1.000000
vt 0.875000 0.750000
vt 0.013573 1.000000
s 0
usemtl 材质.014
f 13/17/10 14/19/10 15/18/10
f 13/17/10 15/18/10 16/22/10
