# Blender 4.3.2
# www.blender.org
mtllib plate.mtl
o 立方体.033
v 4.035607 0.889917 -4.147003
v 4.044368 0.956142 -4.162636
v 4.035607 0.889917 -4.914457
v 4.044368 0.956142 -4.898824
v 4.465676 0.889917 -4.147003
v 4.456915 0.956142 -4.162636
v 4.465676 0.889917 -4.914457
v 4.456915 0.956142 -4.898824
v 4.035607 0.956142 -4.147003
v 4.035607 0.956142 -4.914457
v 4.465676 0.956142 -4.914457
v 4.465676 0.956142 -4.147003
v 4.055752 0.912372 -4.182950
v 4.055752 0.912372 -4.878510
v 4.445532 0.912372 -4.878510
v 4.445532 0.912372 -4.182950
vn -1.0000 -0.0000 -0.0000
vn -0.0000 -0.0000 -1.0000
vn 1.0000 -0.0000 -0.0000
vn -0.0000 -0.0000 1.0000
vn -0.0000 -1.0000 -0.0000
vn -0.9678 0.2517 -0.0000
vn -0.0000 1.0000 -0.0000
vn 0.9678 0.2517 -0.0000
vn -0.0000 0.4210 -0.9071
vn -0.0000 0.4210 0.9071
vt 0.625000 0.000000
vt 0.375000 0.250000
vt 0.375000 0.000000
vt 0.625000 0.250000
vt 0.375000 0.500000
vt 0.625000 0.500000
vt 0.375000 0.750000
vt 0.625000 0.750000
vt 0.375000 1.000000
vt 0.125000 0.750000
vt 0.125000 0.500000
vt 0.000000 0.000000
vt 0.689555 0.972407
vt 0.000000 1.000000
vt 0.869907 0.505093
vt 0.875000 0.750000
vt 0.869907 0.744907
vt 0.630093 0.505093
vt 0.875000 0.500000
vt 0.630093 0.744907
vt 0.689554 0.972407
vt 0.000000 1.000000
vt 0.000000 0.000000
vt 0.689554 0.972407
vt 0.000000 1.000000
vt 0.625000 1.000000
vt 0.689554 0.027593
vt 0.689554 0.027593
vt 0.689554 0.027593
s 0
usemtl Wood20
f 9/1/1 3/2/1 1/3/1
f 10/4/2 7/5/2 3/2/2
f 11/6/3 5/7/3 7/5/3
f 12/8/4 1/9/4 5/7/4
f 7/5/5 1/10/5 3/11/5
f 8/12/6 16/13/6 6/14/6
f 4/15/7 9/16/7 2/17/7
f 8/18/7 10/19/7 4/15/7
f 6/20/7 11/6/7 8/18/7
f 2/17/7 12/8/7 6/20/7
f 14/15/7 16/20/7 15/18/7
f 2/12/8 14/21/8 4/22/8
f 6/20/9 13/17/9 2/17/9
f 4/23/10 15/24/10 8/25/10
f 9/1/1 10/4/1 3/2/1
f 10/4/2 11/6/2 7/5/2
f 11/6/3 12/8/3 5/7/3
f 12/8/4 9/26/4 1/9/4
f 7/5/5 5/7/5 1/10/5
f 8/12/6 15/27/6 16/13/6
f 4/15/7 10/19/7 9/16/7
f 8/18/7 11/6/7 10/19/7
f 6/20/7 12/8/7 11/6/7
f 2/17/7 9/16/7 12/8/7
f 14/15/7 13/17/7 16/20/7
f 2/12/8 13/28/8 14/21/8
f 6/20/9 16/20/9 13/17/9
f 4/23/10 14/29/10 15/24/10
