# Blender 4.3.2
# www.blender.org
mtllib smallstereohead.mtl
o 立方体.020
v -2.996142 1.574579 -2.386811
v -3.163724 1.561359 -2.219229
v -2.996142 1.574579 -2.403847
v -3.163724 1.561359 -2.571429
v -2.979105 1.574579 -2.386811
v -2.811523 1.561359 -2.219229
v -2.979105 1.574579 -2.403847
v -2.811523 1.561359 -2.571429
v -2.843984 1.584734 -2.561546
v -2.843984 1.570764 -2.561546
v -3.138314 1.570764 -2.561546
v -3.138314 1.584734 -2.561546
v -3.135284 1.570764 -2.561248
v -3.135284 1.584734 -2.561248
v -3.132372 1.570764 -2.560364
v -3.132372 1.584734 -2.560364
v -3.129687 1.570764 -2.558929
v -3.129687 1.584734 -2.558929
v -3.127334 1.570764 -2.556998
v -3.127334 1.584734 -2.556998
v -3.125403 1.570764 -2.554645
v -3.125403 1.584734 -2.554645
v -3.123968 1.570764 -2.551961
v -3.123968 1.584734 -2.551961
v -3.123085 1.570764 -2.549048
v -3.123085 1.584734 -2.549048
v -3.122786 1.570764 -2.546019
v -3.122786 1.584734 -2.546019
v -3.123085 1.570764 -2.542989
v -3.123085 1.584734 -2.542989
v -3.123968 1.570764 -2.540076
v -3.123968 1.584734 -2.540076
v -3.125403 1.570764 -2.537392
v -3.125403 1.584734 -2.537392
v -3.127334 1.570764 -2.535039
v -3.127334 1.584734 -2.535039
v -3.129687 1.570764 -2.533108
v -3.129687 1.584734 -2.533108
v -3.132372 1.570764 -2.531673
v -3.132372 1.584734 -2.531673
v -3.135284 1.570764 -2.530789
v -3.135284 1.584734 -2.530789
v -3.138314 1.570764 -2.530491
v -3.138314 1.584734 -2.530491
v -3.141343 1.570764 -2.530789
v -3.141343 1.584734 -2.530789
v -3.144256 1.570764 -2.531673
v -3.144256 1.584734 -2.531673
v -3.146940 1.570764 -2.533108
v -3.146940 1.584734 -2.533108
v -3.149293 1.570764 -2.535039
v -3.149293 1.584734 -2.535039
v -3.151225 1.570764 -2.537392
v -3.151225 1.584734 -2.537392
v -3.152659 1.570764 -2.540076
v -3.152659 1.584734 -2.540076
v -3.153543 1.570764 -2.542989
v -3.153543 1.584734 -2.542989
v -3.153841 1.570764 -2.546019
v -3.153841 1.584734 -2.546019
v -3.153543 1.570764 -2.549048
v -3.153543 1.584734 -2.549048
v -3.152659 1.570764 -2.551961
v -3.152659 1.584734 -2.551961
v -3.151225 1.570764 -2.554645
v -3.151225 1.584734 -2.554645
v -3.149293 1.570764 -2.556998
v -3.149293 1.584734 -2.556998
v -3.146940 1.570764 -2.558929
v -3.146940 1.584734 -2.558929
v -3.144256 1.570764 -2.560364
v -3.144256 1.584734 -2.560364
v -3.141343 1.570764 -2.561248
v -3.141343 1.584734 -2.561248
v -2.840955 1.570764 -2.561248
v -2.840955 1.584734 -2.561248
v -2.838042 1.570764 -2.560364
v -2.838042 1.584734 -2.560364
v -2.835357 1.570764 -2.558929
v -2.835357 1.584734 -2.558929
v -2.833004 1.570764 -2.556998
v -2.833004 1.584734 -2.556998
v -2.831073 1.570764 -2.554645
v -2.831073 1.584734 -2.554645
v -2.829638 1.570764 -2.551961
v -2.829638 1.584734 -2.551961
v -2.828755 1.570764 -2.549048
v -2.828755 1.584734 -2.549048
v -2.828456 1.570764 -2.546019
v -2.828456 1.584734 -2.546019
v -2.828755 1.570764 -2.542989
v -2.828755 1.584734 -2.542989
v -2.829638 1.570764 -2.540076
v -2.829638 1.584734 -2.540076
v -2.831073 1.570764 -2.537392
v -2.831073 1.584734 -2.537392
v -2.833004 1.570764 -2.535039
v -2.833004 1.584734 -2.535039
v -2.835357 1.570764 -2.533108
v -2.835357 1.584734 -2.533108
v -2.838042 1.570764 -2.531673
v -2.838042 1.584734 -2.531673
v -2.840955 1.570764 -2.530789
v -2.840955 1.584734 -2.530789
v -2.843984 1.570764 -2.530491
v -2.843984 1.584734 -2.530491
v -2.847013 1.570764 -2.530789
v -2.847013 1.584734 -2.530789
v -2.849926 1.570764 -2.531673
v -2.849926 1.584734 -2.531673
v -2.852611 1.570764 -2.533108
v -2.852611 1.584734 -2.533108
v -2.854964 1.570764 -2.535039
v -2.854964 1.584734 -2.535039
v -2.856895 1.570764 -2.537392
v -2.856895 1.584734 -2.537392
v -2.858330 1.570764 -2.540076
v -2.858330 1.584734 -2.540076
v -2.859213 1.570764 -2.542989
v -2.859213 1.584734 -2.542989
v -2.859511 1.570764 -2.546019
v -2.859511 1.584734 -2.546019
v -2.859213 1.570764 -2.549048
v -2.859213 1.584734 -2.549048
v -2.858330 1.570764 -2.551961
v -2.858330 1.584734 -2.551961
v -2.856895 1.570764 -2.554645
v -2.856895 1.584734 -2.554645
v -2.854964 1.570764 -2.556998
v -2.854964 1.584734 -2.556998
v -2.852611 1.570764 -2.558929
v -2.852611 1.584734 -2.558929
v -2.849926 1.570764 -2.560364
v -2.849926 1.584734 -2.560364
v -2.847013 1.570764 -2.561248
v -2.847013 1.584734 -2.561248
v -2.843984 1.584734 -2.260154
v -2.843984 1.570764 -2.260154
v -3.138314 1.570764 -2.260154
v -3.138314 1.584734 -2.260154
v -3.135284 1.570764 -2.259856
v -3.135284 1.584734 -2.259856
v -3.132372 1.570764 -2.258972
v -3.132372 1.584734 -2.258972
v -3.129687 1.570764 -2.257537
v -3.129687 1.584734 -2.257537
v -3.127334 1.570764 -2.255606
v -3.127334 1.584734 -2.255606
v -3.125403 1.570764 -2.253253
v -3.125403 1.584734 -2.253253
v -3.123968 1.570764 -2.250569
v -3.123968 1.584734 -2.250569
v -3.123085 1.570764 -2.247656
v -3.123085 1.584734 -2.247656
v -3.122786 1.570764 -2.244627
v -3.122786 1.584734 -2.244627
v -3.123085 1.570764 -2.241597
v -3.123085 1.584734 -2.241597
v -3.123968 1.570764 -2.238685
v -3.123968 1.584734 -2.238685
v -3.125403 1.570764 -2.236000
v -3.125403 1.584734 -2.236000
v -3.127334 1.570764 -2.233647
v -3.127334 1.584734 -2.233647
v -3.129687 1.570764 -2.231716
v -3.129687 1.584734 -2.231716
v -3.132372 1.570764 -2.230281
v -3.132372 1.584734 -2.230281
v -3.135284 1.570764 -2.229398
v -3.135284 1.584734 -2.229398
v -3.138314 1.570764 -2.229099
v -3.138314 1.584734 -2.229099
v -3.141343 1.570764 -2.229398
v -3.141343 1.584734 -2.229398
v -3.144256 1.570764 -2.230281
v -3.144256 1.584734 -2.230281
v -3.146940 1.570764 -2.231716
v -3.146940 1.584734 -2.231716
v -3.149293 1.570764 -2.233647
v -3.149293 1.584734 -2.233647
v -3.151225 1.570764 -2.236000
v -3.151225 1.584734 -2.236000
v -3.152659 1.570764 -2.238685
v -3.152659 1.584734 -2.238685
v -3.153543 1.570764 -2.241597
v -3.153543 1.584734 -2.241597
v -3.153841 1.570764 -2.244627
v -3.153841 1.584734 -2.244627
v -3.153543 1.570764 -2.247656
v -3.153543 1.584734 -2.247656
v -3.152659 1.570764 -2.250569
v -3.152659 1.584734 -2.250569
v -3.151225 1.570764 -2.253253
v -3.151225 1.584734 -2.253253
v -3.149293 1.570764 -2.255606
v -3.149293 1.584734 -2.255606
v -3.146940 1.570764 -2.257537
v -3.146940 1.584734 -2.257537
v -3.144256 1.570764 -2.258972
v -3.144256 1.584734 -2.258972
v -3.141343 1.570764 -2.259856
v -3.141343 1.584734 -2.259856
v -2.840955 1.570764 -2.259856
v -2.840955 1.584734 -2.259856
v -2.838042 1.570764 -2.258972
v -2.838042 1.584734 -2.258972
v -2.835357 1.570764 -2.257537
v -2.835357 1.584734 -2.257537
v -2.833004 1.570764 -2.255606
v -2.833004 1.584734 -2.255606
v -2.831073 1.570764 -2.253253
v -2.831073 1.584734 -2.253253
v -2.829638 1.570764 -2.250569
v -2.829638 1.584734 -2.250569
v -2.828755 1.570764 -2.247656
v -2.828755 1.584734 -2.247656
v -2.828456 1.570764 -2.244627
v -2.828456 1.584734 -2.244627
v -2.828755 1.570764 -2.241597
v -2.828755 1.584734 -2.241597
v -2.829638 1.570764 -2.238685
v -2.829638 1.584734 -2.238685
v -2.831073 1.570764 -2.236000
v -2.831073 1.584734 -2.236000
v -2.833004 1.570764 -2.233647
v -2.833004 1.584734 -2.233647
v -2.835357 1.570764 -2.231716
v -2.835357 1.584734 -2.231716
v -2.838042 1.570764 -2.230281
v -2.838042 1.584734 -2.230281
v -2.840955 1.570764 -2.229398
v -2.840955 1.584734 -2.229398
v -2.843984 1.570764 -2.229099
v -2.843984 1.584734 -2.229099
v -2.847013 1.570764 -2.229398
v -2.847013 1.584734 -2.229398
v -2.849926 1.570764 -2.230281
v -2.849926 1.584734 -2.230281
v -2.852611 1.570764 -2.231716
v -2.852611 1.584734 -2.231716
v -2.854964 1.570764 -2.233647
v -2.854964 1.584734 -2.233647
v -2.856895 1.570764 -2.236000
v -2.856895 1.584734 -2.236000
v -2.858330 1.570764 -2.238685
v -2.858330 1.584734 -2.238685
v -2.859213 1.570764 -2.241597
v -2.859213 1.584734 -2.241597
v -2.859511 1.570764 -2.244627
v -2.859511 1.584734 -2.244627
v -2.859213 1.570764 -2.247656
v -2.859213 1.584734 -2.247656
v -2.858330 1.570764 -2.250569
v -2.858330 1.584734 -2.250569
v -2.856895 1.570764 -2.253253
v -2.856895 1.584734 -2.253253
v -2.854964 1.570764 -2.255606
v -2.854964 1.584734 -2.255606
v -2.852611 1.570764 -2.257537
v -2.852611 1.584734 -2.257537
v -2.849926 1.570764 -2.258972
v -2.849926 1.584734 -2.258972
v -2.847013 1.570764 -2.259856
v -2.847013 1.584734 -2.259856
v -3.163724 1.574579 -2.571429
v -3.163724 1.574579 -2.219229
v -2.811523 1.574579 -2.571429
v -2.811523 1.574579 -2.219229
v -2.996142 1.584462 -2.403847
v -2.996142 1.584462 -2.386811
v -2.979105 1.584462 -2.403847
v -2.979105 1.584462 -2.386811
v -3.169356 1.581593 -2.577061
v -3.169356 1.581593 -2.213608
v -2.801134 1.591037 -2.567194
v -2.801134 1.591037 -2.223474
v -3.169356 2.133280 -2.577061
v -3.169356 2.133280 -2.213608
v -2.801134 2.123836 -2.567194
v -2.801134 2.123836 -2.223474
v -3.163283 2.144346 -2.570988
v -3.163283 2.144346 -2.219681
v -2.811975 2.144346 -2.570988
v -2.811975 2.144346 -2.219681
v -2.805902 1.581593 -2.213608
v -2.805902 1.581593 -2.577061
v -2.805902 2.133280 -2.213608
v -2.805902 2.133280 -2.577061
v -2.996142 1.574579 -5.407828
v -3.163724 1.561359 -5.575410
v -2.996142 1.574579 -5.390792
v -3.163724 1.561359 -5.223209
v -2.979105 1.574579 -5.407828
v -2.811523 1.561359 -5.575410
v -2.979105 1.574579 -5.390792
v -2.811523 1.561359 -5.223209
v -2.843984 1.584734 -5.233092
v -2.843984 1.570764 -5.233092
v -3.138314 1.570764 -5.233092
v -3.138314 1.584734 -5.233092
v -3.135284 1.570764 -5.233391
v -3.135284 1.584734 -5.233391
v -3.132372 1.570764 -5.234275
v -3.132372 1.584734 -5.234275
v -3.129687 1.570764 -5.235709
v -3.129687 1.584734 -5.235709
v -3.127334 1.570764 -5.237640
v -3.127334 1.584734 -5.237640
v -3.125403 1.570764 -5.239993
v -3.125403 1.584734 -5.239993
v -3.123968 1.570764 -5.242678
v -3.123968 1.584734 -5.242678
v -3.123085 1.570764 -5.245591
v -3.123085 1.584734 -5.245591
v -3.122786 1.570764 -5.248620
v -3.122786 1.584734 -5.248620
v -3.123085 1.570764 -5.251649
v -3.123085 1.584734 -5.251649
v -3.123968 1.570764 -5.254562
v -3.123968 1.584734 -5.254562
v -3.125403 1.570764 -5.257247
v -3.125403 1.584734 -5.257247
v -3.127334 1.570764 -5.259600
v -3.127334 1.584734 -5.259600
v -3.129687 1.570764 -5.261531
v -3.129687 1.584734 -5.261531
v -3.132372 1.570764 -5.262966
v -3.132372 1.584734 -5.262966
v -3.135284 1.570764 -5.263849
v -3.135284 1.584734 -5.263849
v -3.138314 1.570764 -5.264148
v -3.138314 1.584734 -5.264148
v -3.141343 1.570764 -5.263849
v -3.141343 1.584734 -5.263849
v -3.144256 1.570764 -5.262966
v -3.144256 1.584734 -5.262966
v -3.146940 1.570764 -5.261531
v -3.146940 1.584734 -5.261531
v -3.149293 1.570764 -5.259600
v -3.149293 1.584734 -5.259600
v -3.151225 1.570764 -5.257247
v -3.151225 1.584734 -5.257247
v -3.152659 1.570764 -5.254562
v -3.152659 1.584734 -5.254562
v -3.153543 1.570764 -5.251649
v -3.153543 1.584734 -5.251649
v -3.153841 1.570764 -5.248620
v -3.153841 1.584734 -5.248620
v -3.153543 1.570764 -5.245591
v -3.153543 1.584734 -5.245591
v -3.152659 1.570764 -5.242678
v -3.152659 1.584734 -5.242678
v -3.151225 1.570764 -5.239993
v -3.151225 1.584734 -5.239993
v -3.149293 1.570764 -5.237640
v -3.149293 1.584734 -5.237640
v -3.146940 1.570764 -5.235709
v -3.146940 1.584734 -5.235709
v -3.144256 1.570764 -5.234275
v -3.144256 1.584734 -5.234275
v -3.141343 1.570764 -5.233391
v -3.141343 1.584734 -5.233391
v -2.840955 1.570764 -5.233391
v -2.840955 1.584734 -5.233391
v -2.838042 1.570764 -5.234275
v -2.838042 1.584734 -5.234275
v -2.835357 1.570764 -5.235709
v -2.835357 1.584734 -5.235709
v -2.833004 1.570764 -5.237640
v -2.833004 1.584734 -5.237640
v -2.831073 1.570764 -5.239993
v -2.831073 1.584734 -5.239993
v -2.829638 1.570764 -5.242678
v -2.829638 1.584734 -5.242678
v -2.828755 1.570764 -5.245591
v -2.828755 1.584734 -5.245591
v -2.828456 1.570764 -5.248620
v -2.828456 1.584734 -5.248620
v -2.828755 1.570764 -5.251649
v -2.828755 1.584734 -5.251649
v -2.829638 1.570764 -5.254562
v -2.829638 1.584734 -5.254562
v -2.831073 1.570764 -5.257247
v -2.831073 1.584734 -5.257247
v -2.833004 1.570764 -5.259600
v -2.833004 1.584734 -5.259600
v -2.835357 1.570764 -5.261531
v -2.835357 1.584734 -5.261531
v -2.838042 1.570764 -5.262966
v -2.838042 1.584734 -5.262966
v -2.840955 1.570764 -5.263849
v -2.840955 1.584734 -5.263849
v -2.843984 1.570764 -5.264148
v -2.843984 1.584734 -5.264148
v -2.847013 1.570764 -5.263849
v -2.847013 1.584734 -5.263849
v -2.849926 1.570764 -5.262966
v -2.849926 1.584734 -5.262966
v -2.852611 1.570764 -5.261531
v -2.852611 1.584734 -5.261531
v -2.854964 1.570764 -5.259600
v -2.854964 1.584734 -5.259600
v -2.856895 1.570764 -5.257247
v -2.856895 1.584734 -5.257247
v -2.858330 1.570764 -5.254562
v -2.858330 1.584734 -5.254562
v -2.859213 1.570764 -5.251649
v -2.859213 1.584734 -5.251649
v -2.859511 1.570764 -5.248620
v -2.859511 1.584734 -5.248620
v -2.859213 1.570764 -5.245591
v -2.859213 1.584734 -5.245591
v -2.858330 1.570764 -5.242678
v -2.858330 1.584734 -5.242678
v -2.856895 1.570764 -5.239993
v -2.856895 1.584734 -5.239993
v -2.854964 1.570764 -5.237640
v -2.854964 1.584734 -5.237640
v -2.852611 1.570764 -5.235709
v -2.852611 1.584734 -5.235709
v -2.849926 1.570764 -5.234275
v -2.849926 1.584734 -5.234275
v -2.847013 1.570764 -5.233391
v -2.847013 1.584734 -5.233391
v -2.843984 1.584734 -5.534484
v -2.843984 1.570764 -5.534484
v -3.138314 1.570764 -5.534484
v -3.138314 1.584734 -5.534484
v -3.135284 1.570764 -5.534782
v -3.135284 1.584734 -5.534782
v -3.132372 1.570764 -5.535666
v -3.132372 1.584734 -5.535666
v -3.129687 1.570764 -5.537101
v -3.129687 1.584734 -5.537101
v -3.127334 1.570764 -5.539032
v -3.127334 1.584734 -5.539032
v -3.125403 1.570764 -5.541386
v -3.125403 1.584734 -5.541386
v -3.123968 1.570764 -5.544070
v -3.123968 1.584734 -5.544070
v -3.123085 1.570764 -5.546983
v -3.123085 1.584734 -5.546983
v -3.122786 1.570764 -5.550012
v -3.122786 1.584734 -5.550012
v -3.123085 1.570764 -5.553041
v -3.123085 1.584734 -5.553041
v -3.123968 1.570764 -5.555954
v -3.123968 1.584734 -5.555954
v -3.125403 1.570764 -5.558639
v -3.125403 1.584734 -5.558639
v -3.127334 1.570764 -5.560992
v -3.127334 1.584734 -5.560992
v -3.129687 1.570764 -5.562922
v -3.129687 1.584734 -5.562922
v -3.132372 1.570764 -5.564358
v -3.132372 1.584734 -5.564358
v -3.135284 1.570764 -5.565241
v -3.135284 1.584734 -5.565241
v -3.138314 1.570764 -5.565539
v -3.138314 1.584734 -5.565539
v -3.141343 1.570764 -5.565241
v -3.141343 1.584734 -5.565241
v -3.144256 1.570764 -5.564358
v -3.144256 1.584734 -5.564358
v -3.146940 1.570764 -5.562922
v -3.146940 1.584734 -5.562922
v -3.149293 1.570764 -5.560992
v -3.149293 1.584734 -5.560992
v -3.151225 1.570764 -5.558639
v -3.151225 1.584734 -5.558639
v -3.152659 1.570764 -5.555954
v -3.152659 1.584734 -5.555954
v -3.153543 1.570764 -5.553041
v -3.153543 1.584734 -5.553041
v -3.153841 1.570764 -5.550012
v -3.153841 1.584734 -5.550012
v -3.153543 1.570764 -5.546983
v -3.153543 1.584734 -5.546983
v -3.152659 1.570764 -5.544070
v -3.152659 1.584734 -5.544070
v -3.151225 1.570764 -5.541386
v -3.151225 1.584734 -5.541386
v -3.149293 1.570764 -5.539032
v -3.149293 1.584734 -5.539032
v -3.146940 1.570764 -5.537101
v -3.146940 1.584734 -5.537101
v -3.144256 1.570764 -5.535666
v -3.144256 1.584734 -5.535666
v -3.141343 1.570764 -5.534782
v -3.141343 1.584734 -5.534782
v -2.840955 1.570764 -5.534782
v -2.840955 1.584734 -5.534782
v -2.838042 1.570764 -5.535666
v -2.838042 1.584734 -5.535666
v -2.835357 1.570764 -5.537101
v -2.835357 1.584734 -5.537101
v -2.833004 1.570764 -5.539032
v -2.833004 1.584734 -5.539032
v -2.831073 1.570764 -5.541386
v -2.831073 1.584734 -5.541386
v -2.829638 1.570764 -5.544070
v -2.829638 1.584734 -5.544070
v -2.828755 1.570764 -5.546983
v -2.828755 1.584734 -5.546983
v -2.828456 1.570764 -5.550012
v -2.828456 1.584734 -5.550012
v -2.828755 1.570764 -5.553041
v -2.828755 1.584734 -5.553041
v -2.829638 1.570764 -5.555954
v -2.829638 1.584734 -5.555954
v -2.831073 1.570764 -5.558639
v -2.831073 1.584734 -5.558639
v -2.833004 1.570764 -5.560992
v -2.833004 1.584734 -5.560992
v -2.835357 1.570764 -5.562922
v -2.835357 1.584734 -5.562922
v -2.838042 1.570764 -5.564358
v -2.838042 1.584734 -5.564358
v -2.840955 1.570764 -5.565241
v -2.840955 1.584734 -5.565241
v -2.843984 1.570764 -5.565539
v -2.843984 1.584734 -5.565539
v -2.847013 1.570764 -5.565241
v -2.847013 1.584734 -5.565241
v -2.849926 1.570764 -5.564358
v -2.849926 1.584734 -5.564358
v -2.852611 1.570764 -5.562922
v -2.852611 1.584734 -5.562922
v -2.854964 1.570764 -5.560992
v -2.854964 1.584734 -5.560992
v -2.856895 1.570764 -5.558639
v -2.856895 1.584734 -5.558639
v -2.858330 1.570764 -5.555954
v -2.858330 1.584734 -5.555954
v -2.859213 1.570764 -5.553041
v -2.859213 1.584734 -5.553041
v -2.859511 1.570764 -5.550012
v -2.859511 1.584734 -5.550012
v -2.859213 1.570764 -5.546983
v -2.859213 1.584734 -5.546983
v -2.858330 1.570764 -5.544070
v -2.858330 1.584734 -5.544070
v -2.856895 1.570764 -5.541386
v -2.856895 1.584734 -5.541386
v -2.854964 1.570764 -5.539032
v -2.854964 1.584734 -5.539032
v -2.852611 1.570764 -5.537101
v -2.852611 1.584734 -5.537101
v -2.849926 1.570764 -5.535666
v -2.849926 1.584734 -5.535666
v -2.847013 1.570764 -5.534782
v -2.847013 1.584734 -5.534782
v -3.163724 1.574579 -5.223209
v -3.163724 1.574579 -5.575410
v -2.811523 1.574579 -5.223209
v -2.811523 1.574579 -5.575410
v -2.996142 1.584462 -5.390792
v -2.996142 1.584462 -5.407828
v -2.979105 1.584462 -5.390792
v -2.979105 1.584462 -5.407828
v -3.169356 1.581593 -5.217578
v -3.169356 1.581593 -5.581031
v -2.801134 1.591037 -5.227444
v -2.801134 1.591037 -5.571165
v -3.169356 2.133280 -5.217578
v -3.169356 2.133280 -5.581031
v -2.801134 2.123836 -5.227444
v -2.801134 2.123836 -5.571165
v -3.163283 2.144346 -5.223651
v -3.163283 2.144346 -5.574958
v -2.811975 2.144346 -5.223651
v -2.811975 2.144346 -5.574958
v -2.805902 1.581593 -5.581031
v -2.805902 1.581593 -5.217578
v -2.805902 2.133280 -5.581031
v -2.805902 2.133280 -5.217578
vn -1.0000 -0.0000 -0.0000
vn -0.0000 -0.0000 -1.0000
vn 1.0000 -0.0000 -0.0000
vn -0.0000 -0.0000 1.0000
vn -0.0000 -1.0000 -0.0000
vn -0.4714 -0.0000 -0.8819
vn -0.0980 -0.0000 0.9952
vn 0.0980 -0.0000 -0.9952
vn 0.4714 -0.0000 0.8819
vn -0.2903 -0.0000 0.9569
vn -0.6344 -0.0000 -0.7730
vn 0.6344 -0.0000 0.7730
vn -0.4714 -0.0000 0.8819
vn 0.4714 -0.0000 -0.8819
vn 0.7730 -0.0000 0.6344
vn -0.6344 -0.0000 0.7730
vn -0.7730 -0.0000 -0.6344
vn 0.8819 -0.0000 0.4714
vn -0.7730 -0.0000 0.6344
vn 0.6344 -0.0000 -0.7730
vn 0.9569 -0.0000 0.2903
vn -0.8819 -0.0000 0.4714
vn -0.8819 -0.0000 -0.4714
vn 0.9952 -0.0000 0.0980
vn -0.9569 -0.0000 0.2903
vn 0.7730 -0.0000 -0.6344
vn 0.9952 -0.0000 -0.0980
vn -0.9952 -0.0000 0.0980
vn -0.9569 -0.0000 -0.2903
vn 0.9569 -0.0000 -0.2903
vn -0.9952 -0.0000 -0.0980
vn 0.8819 -0.0000 -0.4714
vn 0.2903 -0.0000 -0.9569
vn -0.2903 -0.0000 -0.9569
vn -0.0980 -0.0000 -0.9952
vn -0.0000 1.0000 -0.0000
vn 0.0980 -0.0000 0.9952
vn 0.2903 -0.0000 0.9569
vn -0.0166 -0.9999 -0.0000
vn 0.0166 -0.9999 -0.0000
vn -0.0000 -0.9999 -0.0166
vn -0.0000 -0.9999 0.0166
vn -0.0000 0.4811 0.8767
vn -0.0000 0.4811 -0.8767
vn 0.8767 0.4811 -0.0000
vn -0.8767 0.4811 -0.0000
vn 0.8927 -0.4507 -0.0000
vn 0.8927 0.4507 -0.0000
vn 0.9004 -0.0000 0.4351
vn 0.9004 -0.0000 -0.4351
vn 0.4713 -0.0000 -0.8820
vn -0.4713 -0.0000 -0.8820
vn 0.2902 -0.0000 0.9570
vn -0.2902 -0.0000 0.9570
vt 0.625000 0.000000
vt 0.375000 0.250000
vt 0.375000 0.000000
vt 0.625000 0.250000
vt 0.375000 0.500000
vt 0.625000 0.500000
vt 0.375000 0.750000
vt 0.625000 0.750000
vt 0.375000 1.000000
vt 0.151201 0.723799
vt 0.348799 0.723799
vt 0.875000 0.500000
vt 0.593750 1.000000
vt 0.562500 0.500000
vt 0.593750 0.500000
vt 0.658156 0.028269
vt 0.971731 0.158156
vt 0.841844 0.471731
vt 1.000000 1.000000
vt 0.968750 0.500000
vt 1.000000 0.500000
vt 0.500000 1.000000
vt 0.468750 0.500000
vt 0.500000 0.500000
vt 0.093750 1.000000
vt 0.062500 0.500000
vt 0.093750 0.500000
vt 0.968750 1.000000
vt 0.937500 0.500000
vt 0.625000 1.000000
vt 0.125000 1.000000
vt 0.125000 0.500000
vt 0.937500 1.000000
vt 0.906250 0.500000
vt 0.437500 1.000000
vt 0.406250 0.500000
vt 0.437500 0.500000
vt 0.156250 1.000000
vt 0.156250 0.500000
vt 0.906250 1.000000
vt 0.656250 1.000000
vt 0.656250 0.500000
vt 0.187500 1.000000
vt 0.187500 0.500000
vt 0.875000 1.000000
vt 0.843750 0.500000
vt 0.406250 1.000000
vt 0.218750 1.000000
vt 0.218750 0.500000
vt 0.843750 1.000000
vt 0.812500 0.500000
vt 0.687500 1.000000
vt 0.687500 0.500000
vt 0.250000 1.000000
vt 0.250000 0.500000
vt 0.812500 1.000000
vt 0.781250 0.500000
vt 0.343750 0.500000
vt 0.281250 1.000000
vt 0.281250 0.500000
vt 0.781250 1.000000
vt 0.750000 0.500000
vt 0.718750 1.000000
vt 0.718750 0.500000
vt 0.312500 1.000000
vt 0.312500 0.500000
vt 0.750000 1.000000
vt 0.343750 1.000000
vt 0.468750 1.000000
vt 0.562500 1.000000
vt 0.531250 0.500000
vt 0.531250 1.000000
vt 0.296822 0.014612
vt 0.014612 0.203178
vt 0.203178 0.485388
vt 0.031250 1.000000
vt 0.000000 0.500000
vt 0.031250 0.500000
vt 0.062500 1.000000
vt 0.151201 0.526201
vt 0.125000 0.750000
vt 0.348799 0.526201
vt 0.806977 0.000000
vt 0.154499 1.000000
vt 0.154470 0.000000
vt 0.937325 0.179050
vt 0.150150 0.820950
vt 0.150115 0.179050
vt 0.665807 0.308867
vt 0.429789 0.691133
vt 0.429793 0.308867
vt 0.508268 0.996275
vt 0.395519 0.016649
vt 0.508268 0.000000
vt 0.348799 0.528304
vt 0.348799 0.721696
vt 0.604481 0.969228
vt 0.604481 0.027044
vt -0.032763 0.393844
vt 0.044213 1.000000
vt -0.003673 0.991884
vt -0.031725 0.990596
vt 0.158043 0.000000
vt 0.158043 1.000000
vt 0.750000 0.010000
vt 0.510000 0.250000
vt 0.750000 0.490000
vt 0.203178 0.014612
vt 0.485388 0.203178
vt 0.296822 0.485388
vt -0.146593 0.393834
vt 0.875000 0.750000
vt 0.796822 0.485388
vt 0.703178 0.485388
vt 0.658156 0.471731
vt 0.616663 0.449553
vt 0.580294 0.419706
vt 0.550447 0.383337
vt 0.528269 0.341844
vt 0.514612 0.296822
vt 0.514612 0.203178
vt 0.528269 0.158156
vt 0.550447 0.116663
vt 0.580294 0.080294
vt 0.616663 0.050447
vt 0.703178 0.014612
vt 0.796822 0.014612
vt 0.841844 0.028269
vt 0.883337 0.050447
vt 0.919706 0.080294
vt 0.949553 0.116663
vt 0.985388 0.203178
vt 0.990000 0.250000
vt 0.985388 0.296822
vt 0.971731 0.341844
vt 0.949553 0.383337
vt 0.919706 0.419706
vt 0.883337 0.449553
vt 0.250000 0.490000
vt 0.341844 0.471731
vt 0.383337 0.449553
vt 0.419706 0.419706
vt 0.449553 0.383337
vt 0.471731 0.341844
vt 0.485388 0.296822
vt 0.490000 0.250000
vt 0.471731 0.158156
vt 0.449553 0.116663
vt 0.419706 0.080294
vt 0.383337 0.050447
vt 0.341844 0.028269
vt 0.250000 0.010000
vt 0.158156 0.028269
vt 0.116663 0.050447
vt 0.080294 0.080294
vt 0.050447 0.116663
vt 0.028269 0.158156
vt 0.010000 0.250000
vt 0.014612 0.296822
vt 0.028269 0.341844
vt 0.050447 0.383337
vt 0.080294 0.419706
vt 0.116663 0.449553
vt 0.158156 0.471731
vt 0.000000 1.000000
vt 0.806975 1.000000
vt 0.937322 0.820950
vt 0.665807 0.691133
vt 0.395519 0.979630
vt 0.044213 0.000000
s 1
usemtl 材质.002
f 276/89/3 275/91/3 279/90/3
f 567/90/3 563/91/3 564/89/3
f 276/89/3 279/90/3 280/168/3
f 567/90/3 564/89/3 568/168/3
