# Blender 4.3.2
# www.blender.org
mtllib smallstereofoot.mtl
o 立方体.019
v -2.987624 1.560312 -2.327680
v -2.974427 1.560312 -2.328980
v -2.961736 1.560312 -2.332829
v -2.950041 1.560312 -2.339081
v -2.939789 1.560312 -2.347494
v -2.931376 1.560312 -2.357745
v -2.925125 1.560312 -2.369441
v -2.921275 1.560312 -2.382131
v -2.919975 1.560312 -2.395329
v -2.921275 1.560312 -2.408526
v -2.925125 1.560312 -2.421217
v -2.931376 1.560312 -2.432913
v -2.939789 1.560312 -2.443164
v -2.950041 1.560312 -2.451577
v -2.961736 1.560312 -2.457828
v -2.974427 1.560312 -2.461678
v -2.987624 1.560312 -2.462978
v -3.000822 1.560312 -2.461678
v -3.013512 1.560312 -2.457828
v -3.025208 1.560312 -2.451577
v -3.035459 1.560311 -2.443164
v -3.043872 1.560312 -2.432913
v -3.050124 1.560312 -2.421217
v -3.053973 1.560312 -2.408526
v -3.055273 1.560312 -2.395329
v -3.053973 1.560312 -2.382131
v -3.050124 1.560312 -2.369441
v -3.043872 1.560312 -2.357745
v -3.035459 1.560312 -2.347494
v -3.025208 1.560312 -2.339081
v -3.013512 1.560311 -2.332829
v -3.000822 1.560311 -2.328979
v -3.145705 0.529783 -2.238698
v -3.145705 0.549073 -2.238698
v -3.145705 0.529783 -2.555494
v -3.145705 0.549073 -2.555494
v -2.828909 0.529783 -2.238698
v -2.828909 0.549073 -2.238698
v -2.828909 0.529783 -2.555494
v -2.828909 0.549073 -2.555494
v -2.974427 0.549073 -2.461678
v -2.987624 0.549073 -2.462978
v -3.000822 0.549073 -2.461678
v -2.961736 0.549073 -2.457828
v -2.950041 0.549073 -2.451577
v -2.939789 0.549073 -2.443164
v -3.013512 0.549073 -2.457828
v -3.025208 0.549073 -2.451577
v -2.931376 0.549073 -2.432913
v -3.035459 0.549073 -2.443164
v -3.043872 0.549073 -2.432913
v -3.050124 0.549073 -2.421217
v -2.921275 0.549073 -2.408526
v -2.925125 0.549073 -2.421217
v -3.053973 0.549073 -2.408526
v -2.919975 0.549073 -2.395329
v -2.921275 0.549073 -2.382131
v -2.925125 0.549073 -2.369441
v -2.931376 0.549073 -2.357745
v -2.939789 0.549073 -2.347494
v -2.950041 0.549073 -2.339081
v -2.961736 0.549073 -2.332829
v -2.974427 0.549073 -2.328980
v -2.987624 0.549073 -2.327680
v -3.000822 0.549073 -2.328979
v -3.013512 0.549073 -2.332829
v -3.025208 0.549073 -2.339081
v -3.043872 0.549073 -2.357745
v -3.035459 0.549073 -2.347494
v -3.055273 0.549073 -2.395329
v -3.053973 0.549073 -2.382131
v -3.050124 0.549073 -2.369441
v -2.987624 1.560311 -5.466959
v -2.974427 1.560311 -5.465659
v -2.961736 1.560311 -5.461809
v -2.950041 1.560311 -5.455558
v -2.939789 1.560311 -5.447145
v -2.931376 1.560311 -5.436893
v -2.925125 1.560311 -5.425198
v -2.921275 1.560311 -5.412508
v -2.919975 1.560311 -5.399310
v -2.921275 1.560311 -5.386112
v -2.925125 1.560311 -5.373422
v -2.931376 1.560311 -5.361726
v -2.939789 1.560311 -5.351475
v -2.950041 1.560311 -5.343061
v -2.961736 1.560311 -5.336810
v -2.974427 1.560311 -5.332961
v -2.987624 1.560311 -5.331661
v -3.000822 1.560311 -5.332961
v -3.013512 1.560311 -5.336810
v -3.025208 1.560311 -5.343061
v -3.035459 1.560311 -5.351475
v -3.043872 1.560311 -5.361726
v -3.050124 1.560311 -5.373422
v -3.053973 1.560311 -5.386112
v -3.055273 1.560311 -5.399310
v -3.053973 1.560311 -5.412508
v -3.050124 1.560311 -5.425198
v -3.043872 1.560311 -5.436893
v -3.035459 1.560311 -5.447145
v -3.025208 1.560311 -5.455558
v -3.013512 1.560311 -5.461809
v -3.000822 1.560311 -5.465659
v -3.145705 0.529783 -5.555941
v -3.145705 0.549073 -5.555941
v -3.145705 0.529783 -5.239144
v -3.145705 0.549073 -5.239144
v -2.828909 0.529783 -5.555941
v -2.828909 0.549073 -5.555941
v -2.828909 0.529783 -5.239144
v -2.828909 0.549073 -5.239144
v -2.974427 0.549073 -5.332961
v -2.987624 0.549073 -5.331661
v -3.000822 0.549073 -5.332961
v -2.961736 0.549073 -5.336810
v -2.950041 0.549073 -5.343061
v -2.939789 0.549073 -5.351475
v -3.013512 0.549073 -5.336810
v -3.025208 0.549073 -5.343061
v -2.931376 0.549073 -5.361726
v -3.035459 0.549073 -5.351475
v -3.043872 0.549073 -5.361726
v -3.050124 0.549073 -5.373422
v -2.921275 0.549073 -5.386112
v -2.925125 0.549073 -5.373422
v -3.053973 0.549073 -5.386112
v -2.919975 0.549073 -5.399310
v -2.921275 0.549073 -5.412508
v -2.925125 0.549073 -5.425198
v -2.931376 0.549073 -5.436893
v -2.939789 0.549073 -5.447145
v -2.950041 0.549073 -5.455558
v -2.961736 0.549073 -5.461809
v -2.974427 0.549073 -5.465659
v -2.987624 0.549073 -5.466959
v -3.000822 0.549073 -5.465659
v -3.013512 0.549073 -5.461809
v -3.025208 0.549073 -5.455558
v -3.043872 0.549073 -5.436893
v -3.035459 0.549073 -5.447145
v -3.055273 0.549073 -5.399310
v -3.053973 0.549073 -5.412508
v -3.050124 0.549073 -5.425198
vn -0.0000 1.0000 -0.0000
vn -1.0000 -0.0000 -0.0000
vn -0.0000 -0.0000 -1.0000
vn 1.0000 -0.0000 -0.0000
vn -0.0000 -0.0000 1.0000
vn -0.0000 -1.0000 -0.0000
vn -0.9808 -0.0000 -0.1951
vn -0.8315 -0.0000 -0.5556
vn -0.7071 -0.0000 -0.7071
vn -0.9239 -0.0000 -0.3827
vn 0.9808 -0.0000 0.1951
vn -0.9239 -0.0000 0.3827
vn -0.9808 -0.0000 0.1951
vn -0.7071 -0.0000 0.7071
vn -0.8315 -0.0000 0.5556
vn 0.1951 -0.0000 -0.9808
vn 0.9239 -0.0000 0.3827
vn 0.8315 -0.0000 0.5556
vn -0.1951 -0.0000 -0.9808
vn -0.1951 -0.0000 0.9808
vn -0.3827 -0.0000 0.9239
vn -0.5556 -0.0000 0.8315
vn 0.3827 -0.0000 -0.9239
vn 0.5556 -0.0000 -0.8315
vn -0.5556 -0.0000 -0.8315
vn 0.7071 -0.0000 0.7071
vn 0.5556 -0.0000 0.8315
vn 0.3827 -0.0000 0.9239
vn 0.1951 -0.0000 0.9808
vn -0.3827 -0.0000 -0.9239
vn 0.7071 -0.0000 -0.7071
vn 0.8315 -0.0000 -0.5556
vn 0.9239 -0.0000 -0.3827
vn 0.9808 -0.0000 -0.1951
vn 0.0001 1.0000 -0.0000
vn -0.0001 1.0000 -0.0000
vn 0.0001 1.0000 -0.0001
vn -0.0002 1.0000 0.0001
vt 0.000000 0.000000
vt 0.625000 0.000000
vt 0.375000 0.250000
vt 0.375000 0.000000
vt 0.625000 0.250000
vt 0.375000 0.500000
vt 0.625000 0.500000
vt 0.375000 0.750000
vt 0.625000 0.750000
vt 0.375000 1.000000
vt 0.125000 0.750000
vt 0.125000 0.500000
vt 0.760665 0.574035
vt 0.750250 0.573009
vt 0.750250 0.679780
vt 0.760665 0.678754
vt 0.875000 0.750000
vt 0.739835 0.574035
vt 0.875000 0.500000
vt 0.739835 0.678754
vt 0.625000 1.000000
vt 0.803636 0.626395
vt 0.802610 0.615980
vt 0.696865 0.626395
vt 0.697891 0.615980
vt 0.799572 0.605965
vt 0.794638 0.596735
vt 0.700929 0.605965
vt 0.705862 0.596735
vt 0.787999 0.588646
vt 0.779909 0.582006
vt 0.712501 0.588646
vt 0.720591 0.582006
vt 0.770680 0.577073
vt 0.729820 0.577073
vt 0.697891 0.636810
vt 0.700929 0.646824
vt 0.802610 0.636810
vt 0.799572 0.646824
vt 0.705862 0.656054
vt 0.712501 0.664144
vt 0.794638 0.656054
vt 0.787999 0.664144
vt 0.720591 0.670783
vt 0.729820 0.675716
vt 0.779909 0.670783
vt 0.770680 0.675716
s 1
usemtl Metal29
f 16/1/1 24/1/1 32/1/1
f 34/2/2 35/3/2 33/4/2
f 36/5/3 39/6/3 35/3/3
f 40/7/4 37/8/4 39/6/4
f 38/9/5 33/10/5 37/8/5
f 39/6/6 33/11/6 35/12/6
f 40/7/1 43/13/1 42/14/1
f 25/1/2 55/1/7 70/1/2
f 22/1/8 50/1/9 51/1/8
f 23/1/10 51/1/8 52/1/10
f 9/1/4 57/1/11 56/1/4
f 27/1/12 71/1/13 72/1/12
f 26/1/13 70/1/2 71/1/13
f 29/1/14 68/1/15 69/1/14
f 17/1/3 41/1/16 42/1/3
f 7/1/17 59/1/18 58/1/17
f 18/1/19 42/1/3 43/1/19
f 32/1/20 66/1/21 65/1/20
f 30/1/22 69/1/14 67/1/22
f 15/1/23 45/1/24 44/1/23
f 31/1/21 67/1/22 66/1/21
f 21/1/9 48/1/25 50/1/9
f 5/1/26 61/1/27 60/1/26
f 8/1/11 58/1/17 57/1/11
f 3/1/28 63/1/29 62/1/28
f 20/1/25 47/1/30 48/1/25
f 14/1/24 46/1/31 45/1/24
f 12/1/32 54/1/33 49/1/32
f 64/1/5 32/1/20 65/1/20
f 28/1/15 72/1/12 68/1/15
f 10/1/34 56/1/4 53/1/34
f 24/1/7 52/1/10 55/1/7
f 16/1/16 44/1/23 41/1/16
f 2/1/29 64/1/5 63/1/29
f 4/1/27 62/1/28 61/1/27
f 19/1/30 43/1/19 47/1/30
f 11/1/33 53/1/34 54/1/33
f 6/1/18 60/1/26 59/1/18
f 64/15/1 65/16/1 34/17/1
f 13/1/31 49/1/32 46/1/31
f 90/1/1 82/1/1 74/1/1
f 107/3/2 106/2/2 105/4/2
f 111/6/5 108/5/5 107/3/5
f 109/8/4 112/7/4 111/6/4
f 105/10/3 110/9/3 109/8/3
f 105/11/6 111/6/6 107/12/6
f 113/18/1 114/14/1 108/19/1
f 127/1/13 97/1/2 142/1/2
f 122/1/14 94/1/15 123/1/15
f 123/1/15 95/1/12 124/1/12
f 129/1/34 81/1/4 128/1/4
f 143/1/7 99/1/10 144/1/10
f 142/1/2 98/1/7 143/1/7
f 140/1/8 101/1/9 141/1/9
f 113/1/29 89/1/5 114/1/5
f 131/1/32 79/1/33 130/1/33
f 114/1/5 90/1/20 115/1/20
f 138/1/30 104/1/19 137/1/19
f 141/1/9 102/1/25 139/1/25
f 117/1/27 87/1/28 116/1/28
f 139/1/25 103/1/30 138/1/30
f 120/1/22 93/1/14 122/1/14
f 133/1/24 77/1/31 132/1/31
f 130/1/33 80/1/34 129/1/34
f 135/1/16 75/1/23 134/1/23
f 119/1/21 92/1/22 120/1/22
f 118/1/26 86/1/27 117/1/27
f 126/1/17 84/1/18 121/1/18
f 136/1/3 104/1/19 73/1/3
f 144/1/10 100/1/8 140/1/8
f 128/1/4 82/1/11 125/1/11
f 124/1/12 96/1/13 127/1/13
f 116/1/28 88/1/29 113/1/29
f 136/1/3 74/1/16 135/1/16
f 134/1/23 76/1/24 133/1/24
f 115/1/20 91/1/21 119/1/21
f 125/1/11 83/1/17 126/1/17
f 132/1/31 78/1/32 131/1/32
f 110/9/1 136/15/1 135/20/1
f 121/1/18 85/1/26 118/1/26
f 32/1/1 1/1/1 2/1/1
f 2/1/1 3/1/1 4/1/1
f 4/1/1 5/1/35 6/1/1
f 6/1/1 7/1/35 8/1/1
f 8/1/1 9/1/36 10/1/1
f 10/1/1 11/1/35 12/1/1
f 12/1/1 13/1/35 14/1/1
f 14/1/1 15/1/1 16/1/1
f 16/1/1 17/1/1 18/1/1
f 18/1/1 19/1/1 20/1/1
f 20/1/1 21/1/37 22/1/1
f 22/1/1 23/1/1 24/1/1
f 24/1/1 25/1/1 26/1/1
f 26/1/1 27/1/35 28/1/1
f 28/1/1 29/1/1 30/1/1
f 30/1/1 31/1/1 32/1/1
f 32/1/1 2/1/1 4/1/1
f 4/1/1 6/1/1 8/1/1
f 8/1/1 10/1/1 12/1/1
f 12/1/1 14/1/1 16/1/1
f 16/1/1 18/1/1 20/1/1
f 20/1/1 22/1/1 24/1/1
f 24/1/1 26/1/1 28/1/1
f 28/1/1 30/1/1 32/1/1
f 32/1/1 4/1/1 8/1/1
f 8/1/1 12/1/1 16/1/1
f 16/1/1 20/1/1 24/1/1
f 24/1/1 28/1/1 32/1/1
f 32/1/1 8/1/1 16/1/1
f 34/2/2 36/5/2 35/3/2
f 36/5/3 40/7/3 39/6/3
f 40/7/4 38/9/4 37/8/4
f 38/9/5 34/21/5 33/10/5
f 39/6/6 37/8/6 33/11/6
f 36/19/1 34/17/1 70/22/1
f 36/19/1 70/22/1 55/23/1
f 56/24/1 38/9/1 40/7/1
f 53/25/1 56/24/1 40/7/1
f 36/19/1 55/23/1 52/26/1
f 36/19/1 52/26/1 51/27/1
f 54/28/1 53/25/1 40/7/1
f 49/29/1 54/28/1 40/7/1
f 36/19/1 51/27/1 50/30/1
f 36/19/1 50/30/1 48/31/1
f 46/32/1 49/29/1 40/7/1
f 45/33/1 46/32/1 40/7/1
f 36/19/1 48/31/1 47/34/1
f 36/19/1 47/34/1 43/13/1
f 44/35/1 45/33/1 40/7/1
f 41/18/1 44/35/1 40/7/1
f 40/7/1 36/19/1 43/13/1
f 42/14/1 41/18/1 40/7/1
f 25/1/2 24/1/7 55/1/7
f 22/1/8 21/1/9 50/1/9
f 23/1/10 22/1/8 51/1/8
f 9/1/4 8/1/11 57/1/11
f 27/1/12 26/1/13 71/1/13
f 26/1/13 25/1/2 70/1/2
f 29/1/14 28/1/15 68/1/15
f 17/1/3 16/1/16 41/1/16
f 7/1/17 6/1/18 59/1/18
f 18/1/19 17/1/3 42/1/3
f 32/1/20 31/1/21 66/1/21
f 30/1/22 29/1/14 69/1/14
f 15/1/23 14/1/24 45/1/24
f 31/1/21 30/1/22 67/1/22
f 21/1/9 20/1/25 48/1/25
f 5/1/26 4/1/27 61/1/27
f 8/1/11 7/1/17 58/1/17
f 3/1/28 2/1/29 63/1/29
f 20/1/25 19/1/30 47/1/30
f 14/1/24 13/1/31 46/1/31
f 12/1/32 11/1/33 54/1/33
f 64/1/5 1/1/5 32/1/20
f 28/1/15 27/1/12 72/1/12
f 10/1/34 9/1/4 56/1/4
f 24/1/7 23/1/10 52/1/10
f 16/1/16 15/1/23 44/1/23
f 2/1/29 1/1/5 64/1/5
f 4/1/27 3/1/28 62/1/28
f 19/1/30 18/1/19 43/1/19
f 11/1/33 10/1/34 53/1/34
f 6/1/18 5/1/26 60/1/26
f 38/9/1 56/24/1 57/36/1
f 38/9/1 57/36/1 58/37/1
f 71/38/1 70/22/1 34/17/1
f 72/39/1 71/38/1 34/17/1
f 38/9/1 58/37/1 59/40/1
f 38/9/1 59/40/1 60/41/1
f 68/42/1 72/39/1 34/17/1
f 69/43/1 68/42/1 34/17/1
f 38/9/1 60/41/1 61/44/1
f 38/9/1 61/44/1 62/45/1
f 67/46/1 69/43/1 34/17/1
f 66/47/1 67/46/1 34/17/1
f 34/17/1 38/9/1 62/45/1
f 34/17/1 62/45/1 63/20/1
f 65/16/1 66/47/1 34/17/1
f 34/17/1 63/20/1 64/15/1
f 13/1/31 12/1/32 49/1/32
f 74/1/1 73/1/1 104/1/1
f 104/1/1 103/1/1 102/1/1
f 102/1/1 101/1/1 100/1/1
f 100/1/1 99/1/1 98/1/1
f 98/1/1 97/1/1 96/1/1
f 96/1/1 95/1/1 94/1/1
f 94/1/1 93/1/38 92/1/1
f 92/1/1 91/1/1 90/1/1
f 90/1/1 89/1/1 88/1/1
f 88/1/1 87/1/1 86/1/1
f 86/1/1 85/1/1 84/1/1
f 84/1/1 83/1/1 82/1/1
f 82/1/1 81/1/1 80/1/1
f 80/1/1 79/1/1 78/1/1
f 78/1/1 77/1/1 76/1/1
f 76/1/1 75/1/1 74/1/1
f 74/1/1 104/1/1 102/1/1
f 102/1/1 100/1/1 98/1/1
f 98/1/1 96/1/1 94/1/1
f 94/1/1 92/1/1 90/1/1
f 90/1/1 88/1/1 86/1/1
f 86/1/1 84/1/1 82/1/1
f 82/1/1 80/1/1 78/1/1
f 78/1/1 76/1/1 74/1/1
f 74/1/1 102/1/1 98/1/1
f 98/1/1 94/1/1 90/1/1
f 90/1/1 86/1/1 82/1/1
f 82/1/1 78/1/1 74/1/1
f 74/1/1 98/1/1 90/1/1
f 107/3/2 108/5/2 106/2/2
f 111/6/5 112/7/5 108/5/5
f 109/8/4 110/9/4 112/7/4
f 105/10/3 106/21/3 110/9/3
f 105/11/6 109/8/6 111/6/6
f 112/7/1 110/9/1 128/24/1
f 112/7/1 128/24/1 125/25/1
f 142/22/1 106/17/1 108/19/1
f 127/23/1 142/22/1 108/19/1
f 112/7/1 125/25/1 126/28/1
f 112/7/1 126/28/1 121/29/1
f 124/26/1 127/23/1 108/19/1
f 123/27/1 124/26/1 108/19/1
f 112/7/1 121/29/1 118/32/1
f 112/7/1 118/32/1 117/33/1
f 122/30/1 123/27/1 108/19/1
f 120/31/1 122/30/1 108/19/1
f 112/7/1 117/33/1 116/35/1
f 112/7/1 116/35/1 113/18/1
f 119/34/1 120/31/1 108/19/1
f 115/13/1 119/34/1 108/19/1
f 108/19/1 112/7/1 113/18/1
f 114/14/1 115/13/1 108/19/1
f 127/1/13 96/1/13 97/1/2
f 122/1/14 93/1/14 94/1/15
f 123/1/15 94/1/15 95/1/12
f 129/1/34 80/1/34 81/1/4
f 143/1/7 98/1/7 99/1/10
f 142/1/2 97/1/2 98/1/7
f 140/1/8 100/1/8 101/1/9
f 113/1/29 88/1/29 89/1/5
f 131/1/32 78/1/32 79/1/33
f 114/1/5 89/1/5 90/1/20
f 138/1/30 103/1/30 104/1/19
f 141/1/9 101/1/9 102/1/25
f 117/1/27 86/1/27 87/1/28
f 139/1/25 102/1/25 103/1/30
f 120/1/22 92/1/22 93/1/14
f 133/1/24 76/1/24 77/1/31
f 130/1/33 79/1/33 80/1/34
f 135/1/16 74/1/16 75/1/23
f 119/1/21 91/1/21 92/1/22
f 118/1/26 85/1/26 86/1/27
f 126/1/17 83/1/17 84/1/18
f 136/1/3 137/1/19 104/1/19
f 144/1/10 99/1/10 100/1/8
f 128/1/4 81/1/4 82/1/11
f 124/1/12 95/1/12 96/1/13
f 116/1/28 87/1/28 88/1/29
f 136/1/3 73/1/3 74/1/16
f 134/1/23 75/1/23 76/1/24
f 115/1/20 90/1/20 91/1/21
f 125/1/11 82/1/11 83/1/17
f 132/1/31 77/1/31 78/1/32
f 106/17/1 142/22/1 143/38/1
f 106/17/1 143/38/1 144/39/1
f 129/36/1 128/24/1 110/9/1
f 130/37/1 129/36/1 110/9/1
f 106/17/1 144/39/1 140/42/1
f 106/17/1 140/42/1 141/43/1
f 131/40/1 130/37/1 110/9/1
f 132/41/1 131/40/1 110/9/1
f 106/17/1 141/43/1 139/46/1
f 106/17/1 139/46/1 138/47/1
f 133/44/1 132/41/1 110/9/1
f 134/45/1 133/44/1 110/9/1
f 110/9/1 106/17/1 138/47/1
f 110/9/1 138/47/1 137/16/1
f 135/20/1 134/45/1 110/9/1
f 110/9/1 137/16/1 136/15/1
f 121/1/18 84/1/18 85/1/26
