# Blender 4.3.2
# www.blender.org
mtllib teatable.mtl
o 立方体.025
v -0.357464 -0.002340 -2.596560
v -0.357464 0.484442 -2.596560
v -0.357464 -0.002340 -4.611934
v -0.357464 0.484442 -4.611934
v 0.815795 -0.002340 -2.596560
v 0.815795 0.484442 -2.596560
v 0.815795 -0.002340 -4.611934
v 0.815795 0.484442 -4.611934
v 0.815795 0.415783 -4.481262
v -0.357464 0.415783 -4.481262
v -0.357464 -0.002340 -4.481262
v 0.815795 0.415784 -2.729579
v -0.357464 0.415784 -2.729579
v 0.815795 -0.002340 -4.481262
v 0.815795 -0.002340 -2.729578
v -0.357464 -0.002340 -2.729578
vn -1.0000 -0.0000 -0.0000
vn -0.0000 -0.0000 -1.0000
vn 1.0000 -0.0000 -0.0000
vn -0.0000 -0.0000 1.0000
vn -0.0000 -1.0000 -0.0000
vn -0.0000 1.0000 -0.0000
vt 0.241534 0.000000
vt 0.241534 1.000000
vt 0.207467 0.066002
vt 1.000000 0.414897
vt 0.000000 0.000000
vt 1.000000 0.000000
vt 0.241534 0.000000
vt 0.241534 1.000000
vt 0.207467 0.064837
vt 0.023663 1.380505
vt 0.391234 -0.380505
vt 0.391234 1.380505
vt 0.375000 0.500000
vt 0.125000 0.507024
vt 0.125000 0.500000
vt 0.000000 1.000000
vt 0.582155 0.000000
vt 0.582155 1.000000
vt 0.000000 0.356378
vt 1.000000 0.000000
vt 1.000000 0.356378
vt 0.000000 1.000000
vt 0.669790 0.000000
vt 0.669790 1.000000
vt 0.356378 0.000000
vt 0.000000 0.000000
vt 0.375000 0.742685
vt 0.125000 0.750000
vt 0.125000 0.742685
vt 0.000001 0.066002
vt 0.000001 0.000000
vt 0.000000 1.000000
vt 0.000000 0.935163
vt 0.207467 0.935162
vt 0.000000 0.414897
vt 0.000002 0.064837
vt 0.000002 0.000000
vt 0.000000 1.000000
vt 0.000000 0.933998
vt 0.207467 0.933998
vt 0.023663 -0.380505
vt 0.375000 0.507024
vt 0.000000 0.000000
vt 0.000000 0.000000
vt 0.356378 1.000000
vt 0.375000 0.750000
s 1
usemtl Wood09
f 2/1/1 4/2/1 13/3/1
f 4/4/2 7/5/2 3/6/2
f 8/7/3 6/8/3 9/9/3
f 6/10/4 1/11/4 5/12/4
f 7/13/5 11/14/5 3/15/5
f 4/16/6 6/17/6 8/18/6
f 10/19/4 14/20/4 9/21/4
f 9/22/5 13/23/5 10/24/5
f 13/25/2 15/16/2 16/26/2
f 15/27/5 1/28/5 16/29/5
f 16/30/1 1/31/1 2/1/1
f 4/2/1 3/32/1 11/33/1
f 4/2/1 11/33/1 10/34/1
f 13/3/1 16/30/1 2/1/1
f 4/2/1 10/34/1 13/3/1
f 4/4/2 8/35/2 7/5/2
f 14/36/3 7/37/3 8/7/3
f 6/8/3 5/38/3 15/39/3
f 6/8/3 15/39/3 12/40/3
f 9/9/3 14/36/3 8/7/3
f 6/8/3 12/40/3 9/9/3
f 6/10/4 2/41/4 1/11/4
f 7/13/5 14/42/5 11/14/5
f 4/16/6 2/43/6 6/17/6
f 10/19/4 11/44/4 14/20/4
f 9/22/5 12/44/5 13/23/5
f 13/25/2 12/45/2 15/16/2
f 15/27/5 5/46/5 1/28/5
