# Blender 4.3.2
# www.blender.org
mtllib television.mtl
o 立方体.017
v -3.020253 1.287036 -2.848282
v -3.020253 2.871983 -2.848282
v -3.020253 1.287036 -4.946357
v -3.020253 2.871983 -4.946357
v -3.183619 1.659039 -3.340722
v -3.183619 2.499979 -3.340722
v -3.183619 1.659039 -4.453917
v -3.183619 2.499979 -4.453917
v -3.020253 1.233095 -4.965157
v -3.020253 1.233095 -2.829482
v -3.020253 2.886185 -2.829482
v -3.020253 2.886185 -4.965157
v -3.028609 1.295895 -4.934629
v -3.028609 1.295895 -2.860010
v -3.028609 2.863124 -2.860010
v -3.028609 2.863124 -4.934629
v -3.030257 1.295895 -4.934629
v -3.030257 1.295895 -2.860010
v -3.030257 2.863124 -2.860010
v -3.030257 2.863124 -4.934629
v -3.088771 2.886185 -4.965157
v -3.088771 1.233095 -4.965157
v -3.088771 1.233095 -2.829482
v -3.088771 2.886185 -2.829482
vn 0.7275 -0.6861 -0.0000
vn -0.0000 -0.0000 -1.0000
vn -1.0000 -0.0000 -0.0000
vn -0.0000 -0.0000 1.0000
vn -0.0000 -1.0000 -0.0000
vn -0.0000 1.0000 -0.0000
vn 1.0000 -0.0000 -0.0000
vn 0.7275 0.6861 -0.0000
vn 0.8144 -0.0000 0.5803
vn 0.8144 -0.0000 -0.5803
vn -0.9832 -0.0000 -0.1824
vn -0.9761 -0.2174 -0.0000
vn -0.9711 0.2385 -0.0000
vn -0.9832 -0.0000 0.1824
vt 0.622799 0.247799
vt 0.622799 0.002201
vt 0.625000 0.250000
vt 0.375000 0.500000
vt 0.375000 0.250000
vt 0.615416 0.509584
vt 0.384584 0.740416
vt 0.384584 0.509584
vt 0.625000 0.750000
vt 0.375000 1.000000
vt 0.375000 0.750000
vt 0.125000 0.750000
vt 0.125000 0.500000
vt 0.875000 0.500000
vt 0.625000 0.500000
vt 0.377201 0.247799
vt 0.375000 0.000000
vt 0.377201 0.002201
vt 0.625000 0.000000
vt 0.615416 0.740416
vt 0.625000 1.000000
vt 0.875000 0.750000
s 0
usemtl 材质.006
f 4/1/1 2/2/1 15/2/1
f 12/3/2 9/5/2 22/4/2
f 8/6/3 7/8/3 5/7/3
f 24/9/4 23/11/4 10/10/4
f 22/4/5 9/13/5 10/12/5
f 12/14/6 21/15/6 24/9/6
f 3/16/7 1/18/7 10/17/7
f 1/18/7 2/2/7 11/19/7
f 2/2/7 4/1/7 12/3/7
f 3/16/7 9/5/7 12/3/7
f 14/18/6 13/16/6 17/16/6
f 1/18/8 3/16/8 13/16/8
f 3/16/9 4/1/9 16/1/9
f 2/2/10 1/18/10 14/18/10
f 13/16/4 16/1/4 20/1/4
f 15/2/2 14/18/2 18/18/2
f 16/1/5 15/2/5 19/2/5
f 7/8/11 8/6/11 21/15/11
f 5/7/12 7/8/12 22/4/12
f 8/6/13 6/20/13 24/9/13
f 5/7/14 23/11/14 24/9/14
f 4/1/1 15/2/1 16/1/1
f 12/3/2 22/4/2 21/15/2
f 8/6/3 5/7/3 6/20/3
f 24/9/4 10/10/4 11/21/4
f 22/4/5 10/12/5 23/11/5
f 12/14/6 24/9/6 11/22/6
f 3/16/7 10/17/7 9/5/7
f 1/18/7 11/19/7 10/17/7
f 2/2/7 12/3/7 11/19/7
f 3/16/7 12/3/7 4/1/7
f 14/18/6 17/16/6 18/18/6
f 1/18/8 13/16/8 14/18/8
f 3/16/9 16/1/9 13/16/9
f 2/2/10 14/18/10 15/2/10
f 13/16/4 20/1/4 17/16/4
f 15/2/2 18/18/2 19/2/2
f 16/1/5 19/2/5 20/1/5
f 7/8/11 21/15/11 22/4/11
f 5/7/12 22/4/12 23/11/12
f 8/6/13 24/9/13 21/15/13
f 5/7/14 24/9/14 6/20/14